<svg xmlns="http://www.w3.org/2000/svg" xmlns:xlink="http://www.w3.org/1999/xlink" contentStyleType="text/css" data-diagram-type="WBS" height="632px" preserveAspectRatio="none" style="width:1037px;height:632px;background:#FFFFFF;" version="1.1" viewBox="0 0 1037 632" width="1037px" zoomAndPan="magnify"><defs/><g><line style="stroke:#181818;stroke-width:1.5;" x1="31.335" x2="31.335" y1="65.0938" y2="85.0938"/><rect fill="#F1F1F1" height="35.0938" style="stroke:#181818;stroke-width:1.5;" width="42.6699" x="10" y="85.0938"/><text fill="#000000" font-family="sans-serif" font-size="12" lengthAdjust="spacing" textLength="22.6699" x="20" y="107.5508">cmd</text><line style="stroke:#181818;stroke-width:1.5;" x1="31.335" x2="41.335" y1="152.7344" y2="152.7344"/><rect fill="#F1F1F1" height="35.0938" style="stroke:#181818;stroke-width:1.5;" width="40.0039" x="41.335" y="135.1875"/><text fill="#000000" font-family="sans-serif" font-size="12" lengthAdjust="spacing" textLength="20.0039" x="51.335" y="157.6445">rest</text><line style="stroke:#181818;stroke-width:1.5;" x1="31.335" x2="31.335" y1="120.1875" y2="152.7344"/><line style="stroke:#181818;stroke-width:1.5;" x1="124.0127" x2="124.0127" y1="65.0938" y2="85.0938"/><rect fill="#F1F1F1" height="35.0938" style="stroke:#181818;stroke-width:1.5;" width="45.3477" x="101.3389" y="85.0938"/><text fill="#000000" font-family="sans-serif" font-size="12" lengthAdjust="spacing" textLength="25.3477" x="111.3389" y="107.5508">docs</text><line style="stroke:#181818;stroke-width:1.5;" x1="198.3662" x2="198.3662" y1="65.0938" y2="85.0938"/><rect fill="#F1F1F1" height="35.0938" style="stroke:#181818;stroke-width:1.5;" width="63.3594" x="166.6865" y="85.0938"/><text fill="#000000" font-family="sans-serif" font-size="12" lengthAdjust="spacing" textLength="43.3594" x="176.6865" y="107.5508">features</text><line style="stroke:#181818;stroke-width:1.5;" x1="279.7246" x2="279.7246" y1="65.0938" y2="85.0938"/><rect fill="#F1F1F1" height="35.0938" style="stroke:#181818;stroke-width:1.5;" width="59.3574" x="250.0459" y="85.0938"/><text fill="#000000" font-family="sans-serif" font-size="12" lengthAdjust="spacing" textLength="39.3574" x="260.0459" y="107.5508">internal</text><line style="stroke:#181818;stroke-width:1.5;" x1="279.7246" x2="289.7246" y1="152.7344" y2="152.7344"/><rect fill="#F1F1F1" height="35.0938" style="stroke:#181818;stroke-width:1.5;" width="65.3633" x="289.7246" y="135.1875"/><text fill="#000000" font-family="sans-serif" font-size="12" lengthAdjust="spacing" textLength="45.3633" x="299.7246" y="157.6445">constant</text><line style="stroke:#181818;stroke-width:1.5;" x1="279.7246" x2="289.7246" y1="202.8281" y2="202.8281"/><rect fill="#F1F1F1" height="35.0938" style="stroke:#181818;stroke-width:1.5;" width="69.3535" x="289.7246" y="185.2813"/><text fill="#000000" font-family="sans-serif" font-size="12" lengthAdjust="spacing" textLength="49.3535" x="299.7246" y="207.7383">controller</text><line style="stroke:#181818;stroke-width:1.5;" x1="279.7246" x2="289.7246" y1="252.9219" y2="252.9219"/><rect fill="#F1F1F1" height="35.0938" style="stroke:#181818;stroke-width:1.5;" width="36.6816" x="289.7246" y="235.375"/><text fill="#000000" font-family="sans-serif" font-size="12" lengthAdjust="spacing" textLength="16.6816" x="299.7246" y="257.832">dto</text><line style="stroke:#181818;stroke-width:1.5;" x1="279.7246" x2="289.7246" y1="303.0156" y2="303.0156"/><rect fill="#F1F1F1" height="35.0938" style="stroke:#181818;stroke-width:1.5;" width="48.6816" x="289.7246" y="285.4688"/><text fill="#000000" font-family="sans-serif" font-size="12" lengthAdjust="spacing" textLength="28.6816" x="299.7246" y="307.9258">entity</text><line style="stroke:#181818;stroke-width:1.5;" x1="279.7246" x2="289.7246" y1="353.1094" y2="353.1094"/><rect fill="#F1F1F1" height="35.0938" style="stroke:#181818;stroke-width:1.5;" width="39.3477" x="289.7246" y="335.5625"/><text fill="#000000" font-family="sans-serif" font-size="12" lengthAdjust="spacing" textLength="19.3477" x="299.7246" y="358.0195">pkg</text><line style="stroke:#181818;stroke-width:1.5;" x1="309.3984" x2="319.3984" y1="403.2031" y2="403.2031"/><rect fill="#F1F1F1" height="35.0938" style="stroke:#181818;stroke-width:1.5;" width="53.3574" x="319.3984" y="385.6563"/><text fill="#000000" font-family="sans-serif" font-size="12" lengthAdjust="spacing" textLength="33.3574" x="329.3984" y="408.1133">logger</text><line style="stroke:#181818;stroke-width:1.5;" x1="309.3984" x2="319.3984" y1="453.2969" y2="453.2969"/><rect fill="#F1F1F1" height="35.0938" style="stroke:#181818;stroke-width:1.5;" width="52.6719" x="319.3984" y="435.75"/><text fill="#000000" font-family="sans-serif" font-size="12" lengthAdjust="spacing" textLength="32.6719" x="329.3984" y="458.207">mailer</text><line style="stroke:#181818;stroke-width:1.5;" x1="309.3984" x2="319.3984" y1="503.3906" y2="503.3906"/><rect fill="#F1F1F1" height="35.0938" style="stroke:#181818;stroke-width:1.5;" width="74.6797" x="319.3984" y="485.8438"/><text fill="#000000" font-family="sans-serif" font-size="12" lengthAdjust="spacing" textLength="54.6797" x="329.3984" y="508.3008">serverutils</text><line style="stroke:#181818;stroke-width:1.5;" x1="309.3984" x2="309.3984" y1="370.6563" y2="503.3906"/><line style="stroke:#181818;stroke-width:1.5;" x1="279.7246" x2="289.7246" y1="553.4844" y2="553.4844"/><rect fill="#F1F1F1" height="35.0938" style="stroke:#181818;stroke-width:1.5;" width="72.6875" x="289.7246" y="535.9375"/><text fill="#000000" font-family="sans-serif" font-size="12" lengthAdjust="spacing" textLength="52.6875" x="299.7246" y="558.3945">repository</text><line style="stroke:#181818;stroke-width:1.5;" x1="279.7246" x2="289.7246" y1="603.5781" y2="603.5781"/><rect fill="#F1F1F1" height="35.0938" style="stroke:#181818;stroke-width:1.5;" width="58.0098" x="289.7246" y="586.0313"/><text fill="#000000" font-family="sans-serif" font-size="12" lengthAdjust="spacing" textLength="38.0098" x="299.7246" y="608.4883">service</text><line style="stroke:#181818;stroke-width:1.5;" x1="279.7246" x2="279.7246" y1="120.1875" y2="603.5781"/><line style="stroke:#181818;stroke-width:1.5;" x1="433.752" x2="433.752" y1="65.0938" y2="85.0938"/><rect fill="#F1F1F1" height="35.0938" style="stroke:#181818;stroke-width:1.5;" width="39.3477" x="414.0781" y="85.0938"/><text fill="#000000" font-family="sans-serif" font-size="12" lengthAdjust="spacing" textLength="19.3477" x="424.0781" y="107.5508">pkg</text><line style="stroke:#181818;stroke-width:1.5;" x1="433.752" x2="443.752" y1="152.7344" y2="152.7344"/><rect fill="#F1F1F1" height="35.0938" style="stroke:#181818;stroke-width:1.5;" width="59.3633" x="443.752" y="135.1875"/><text fill="#000000" font-family="sans-serif" font-size="12" lengthAdjust="spacing" textLength="39.3633" x="453.752" y="157.6445">chatbot</text><line style="stroke:#181818;stroke-width:1.5;" x1="433.752" x2="443.752" y1="202.8281" y2="202.8281"/><rect fill="#F1F1F1" height="35.0938" style="stroke:#181818;stroke-width:1.5;" width="69.377" x="443.752" y="185.2813"/><text fill="#000000" font-family="sans-serif" font-size="12" lengthAdjust="spacing" textLength="49.377" x="453.752" y="207.7383">database</text><line style="stroke:#181818;stroke-width:1.5;" x1="433.752" x2="443.752" y1="252.9219" y2="252.9219"/><rect fill="#F1F1F1" height="35.0938" style="stroke:#181818;stroke-width:1.5;" width="79.3789" x="443.752" y="235.375"/><text fill="#000000" font-family="sans-serif" font-size="12" lengthAdjust="spacing" textLength="59.3789" x="453.752" y="257.832">embedding</text><line style="stroke:#181818;stroke-width:1.5;" x1="433.752" x2="433.752" y1="120.1875" y2="252.9219"/><line style="stroke:#181818;stroke-width:1.5;" x1="569.1416" x2="569.1416" y1="65.0938" y2="85.0938"/><rect fill="#F1F1F1" height="35.0938" style="stroke:#181818;stroke-width:1.5;" width="52.0215" x="543.1309" y="85.0938"/><text fill="#000000" font-family="sans-serif" font-size="12" lengthAdjust="spacing" textLength="32.0215" x="553.1309" y="107.5508">seeds</text><line style="stroke:#181818;stroke-width:1.5;" x1="646.1699" x2="646.1699" y1="65.0938" y2="85.0938"/><rect fill="#F1F1F1" height="35.0938" style="stroke:#181818;stroke-width:1.5;" width="62.0352" x="615.1523" y="85.0938"/><text fill="#000000" font-family="sans-serif" font-size="12" lengthAdjust="spacing" textLength="42.0352" x="625.1523" y="107.5508">uploads</text><line style="stroke:#181818;stroke-width:1.5;" x1="646.1699" x2="656.1699" y1="152.7344" y2="152.7344"/><rect fill="#F1F1F1" height="35.0938" style="stroke:#181818;stroke-width:1.5;" width="59.3516" x="656.1699" y="135.1875"/><text fill="#000000" font-family="sans-serif" font-size="12" lengthAdjust="spacing" textLength="39.3516" x="666.1699" y="157.6445">avatars</text><line style="stroke:#181818;stroke-width:1.5;" x1="646.1699" x2="646.1699" y1="120.1875" y2="152.7344"/><line style="stroke:#181818;stroke-width:1.5;" x1="756.8623" x2="756.8623" y1="65.0938" y2="85.0938"/><rect fill="#F1F1F1" height="35.0938" style="stroke:#181818;stroke-width:1.5;" width="42.6816" x="735.5215" y="85.0938"/><text fill="#000000" font-family="sans-serif" font-size="12" lengthAdjust="spacing" textLength="22.6816" x="745.5215" y="107.5508">.env</text><line style="stroke:#181818;stroke-width:1.5;" x1="832.8857" x2="832.8857" y1="65.0938" y2="85.0938"/><rect fill="#F1F1F1" height="35.0938" style="stroke:#181818;stroke-width:1.5;" width="69.3652" x="798.2031" y="85.0938"/><text fill="#000000" font-family="sans-serif" font-size="12" lengthAdjust="spacing" textLength="49.3652" x="808.2031" y="107.5508">.gitignore</text><line style="stroke:#181818;stroke-width:1.5;" x1="917.5811" x2="917.5811" y1="65.0938" y2="85.0938"/><rect fill="#F1F1F1" height="35.0938" style="stroke:#181818;stroke-width:1.5;" width="60.0254" x="887.5684" y="85.0938"/><text fill="#000000" font-family="sans-serif" font-size="12" lengthAdjust="spacing" textLength="40.0254" x="897.5684" y="107.5508">go.mod</text><line style="stroke:#181818;stroke-width:1.5;" x1="997.2695" x2="997.2695" y1="65.0938" y2="85.0938"/><rect fill="#F1F1F1" height="35.0938" style="stroke:#181818;stroke-width:1.5;" width="59.3516" x="967.5938" y="85.0938"/><text fill="#000000" font-family="sans-serif" font-size="12" lengthAdjust="spacing" textLength="39.3516" x="977.5938" y="107.5508">go.sum</text><line style="stroke:#181818;stroke-width:1.5;" x1="31.335" x2="997.2695" y1="65.0938" y2="65.0938"/><rect fill="#F1F1F1" height="35.0938" style="stroke:#181818;stroke-width:1.5;" width="86.7031" x="470.9507" y="10"/><text fill="#000000" font-family="sans-serif" font-size="12" lengthAdjust="spacing" textLength="66.7031" x="480.9507" y="32.457">notefiber-BE</text><line style="stroke:#181818;stroke-width:1.5;" x1="514.3022" x2="514.3022" y1="45.0938" y2="65.0938"/><!--SRC=[JL9DRnen4BtxLymHLW9HqaJHdg8GsWQ151MIdcVNWx7mUbRs69H_Nwytg3sz-NZZUVFafoWOvDf45S_MznYmWmRRimcSl5wnum3NanNwhnzFgFbglO4ZkaXALU1Pw6WR2hFdjQegQ3kTeO90KOPSSni7F19AoiKXjbueU7I5sBBFIhpS4Wdi78MIQk62vCNAPmdxincm0iV6ZBGAEhJk5aSA5mf9h8jVGdgELZYCyqFRjgJ-FGNj2QNXKO16mGOZZMkxXhJEvweoIBgeJxrZrEFZUCdyKCfpyfU2neerdaFPONZUiVwAOkgKUYAl1zVLcyjNl- -saEL6onw-pPUBvVryEVb36ZReOV48YqLzTr_VFS3hwW13UwecFz-s43c5ba3RAC4s-LhsKxN9Sk1tocPrLCEGJGwxAUpNjoAi_SK6zbqsL6q-TYC9Vh7iUvP2VlW-UxO2- -8YVEpK2nqnEScZBGzUrF1- -35xL5lq9g79YyYhLVup4ZvhU7tv2m00]--></g></svg>