<svg xmlns="http://www.w3.org/2000/svg" xmlns:xlink="http://www.w3.org/1999/xlink" contentStyleType="text/css" data-diagram-type="SEQUENCE" height="1003px" preserveAspectRatio="none" style="width:1518px;height:1003px;background:#FFFFFF;" version="1.1" viewBox="0 0 1518 1003" width="1518px" zoomAndPan="magnify"><title>**Registration Flow**
POST /api/auth/register</title><defs/><g><text fill="#000000" font-family="sans-serif" font-size="14" font-weight="bold" lengthAdjust="spacing" textLength="117.4482" x="696.4211" y="43.1113">Registration Flow</text><text fill="#000000" font-family="sans-serif" font-size="14" font-weight="bold" lengthAdjust="spacing" textLength="154.8135" x="677.7385" y="60.7207">POST /api/auth/register</text><g><title>HTTP Client</title><rect fill="#F5F5F5" height="695.3828" style="stroke:#181818;stroke-width:1;" width="10" x="41.1172" y="184.7578"/></g><g><title>Server</title><rect fill="#F5F5F5" height="628.6797" style="stroke:#181818;stroke-width:1;" width="10" x="243.8389" y="215.1094"/></g><g><title>Controller</title><rect fill="#F5F5F5" height="73.7031" style="stroke:#181818;stroke-width:1;" width="10" x="453.0605" y="215.1094"/></g><g><title>Service</title><rect fill="#F5F5F5" height="481.2734" style="stroke:#181818;stroke-width:1;" width="10" x="617.5186" y="288.8125"/></g><g><title>Unit of Work</title><rect fill="#F5F5F5" height="316.5156" style="stroke:#181818;stroke-width:1;" width="10" x="825.3057" y="362.5156"/></g><g><title>Repository</title><rect fill="#F5F5F5" height="212.4609" style="stroke:#181818;stroke-width:1;" width="10" x="998.3901" y="392.8672"/></g><g><title>Mapper</title><rect fill="#F5F5F5" height="151.7578" style="stroke:#181818;stroke-width:1;" width="10" x="1137.5864" y="423.2188"/></g><g><title>Model</title><rect fill="#F5F5F5" height="91.0547" style="stroke:#181818;stroke-width:1;" width="10" x="1287.2817" y="453.5703"/></g><g><title>Database</title><rect fill="#F5F5F5" height="30.3516" style="stroke:#181818;stroke-width:1;" width="10" x="1414.208" y="483.9219"/></g><g><title>Mailer</title><rect fill="#F5F5F5" height="30.3516" style="stroke:#181818;stroke-width:1;" width="10" x="1479.2319" y="709.3828"/></g><g><title>HTTP Client</title><rect fill="#000000" fill-opacity="0.00000" height="752.7344" width="8" x="42.1172" y="152.4063"/><line style="stroke:#666666;stroke-width:0.5;stroke-dasharray:5,5;" x1="46" x2="46" y1="152.4063" y2="905.1406"/></g><g><title>Server</title><rect fill="#000000" fill-opacity="0.00000" height="752.7344" width="8" x="244.8389" y="152.4063"/><line style="stroke:#666666;stroke-width:0.5;stroke-dasharray:5,5;" x1="248.3389" x2="248.3389" y1="152.4063" y2="905.1406"/></g><g><title>Controller</title><rect fill="#000000" fill-opacity="0.00000" height="752.7344" width="8" x="454.0605" y="152.4063"/><line style="stroke:#666666;stroke-width:0.5;stroke-dasharray:5,5;" x1="457.7158" x2="457.7158" y1="152.4063" y2="905.1406"/></g><g><title>Service</title><rect fill="#000000" fill-opacity="0.00000" height="752.7344" width="8" x="618.5186" y="152.4063"/><line style="stroke:#666666;stroke-width:0.5;stroke-dasharray:5,5;" x1="622.1772" x2="622.1772" y1="152.4063" y2="905.1406"/></g><g><title>Unit of Work</title><rect fill="#000000" fill-opacity="0.00000" height="752.7344" width="8" x="826.3057" y="152.4063"/><line style="stroke:#666666;stroke-width:0.5;stroke-dasharray:5,5;" x1="829.7988" x2="829.7988" y1="152.4063" y2="905.1406"/></g><g><title>Repository</title><rect fill="#000000" fill-opacity="0.00000" height="752.7344" width="8" x="999.3901" y="152.4063"/><line style="stroke:#666666;stroke-width:0.5;stroke-dasharray:5,5;" x1="1002.9316" x2="1002.9316" y1="152.4063" y2="905.1406"/></g><g><title>Mapper</title><rect fill="#000000" fill-opacity="0.00000" height="752.7344" width="8" x="1138.5864" y="152.4063"/><line style="stroke:#666666;stroke-width:0.5;stroke-dasharray:5,5;" x1="1141.8521" x2="1141.8521" y1="152.4063" y2="905.1406"/></g><g><title>Model</title><rect fill="#000000" fill-opacity="0.00000" height="752.7344" width="8" x="1288.2817" y="152.4063"/><line style="stroke:#666666;stroke-width:0.5;stroke-dasharray:5,5;" x1="1292.2163" x2="1292.2163" y1="152.4063" y2="905.1406"/></g><g><title>Database</title><rect fill="#000000" fill-opacity="0.00000" height="752.7344" width="8" x="1415.208" y="152.4063"/><line style="stroke:#666666;stroke-width:0.5;stroke-dasharray:5,5;" x1="1418.2427" x2="1418.2427" y1="152.4063" y2="905.1406"/></g><g><title>Mailer</title><rect fill="#000000" fill-opacity="0.00000" height="752.7344" width="8" x="1480.2319" y="152.4063"/><line style="stroke:#666666;stroke-width:0.5;stroke-dasharray:5,5;" x1="1484.1733" x2="1484.1733" y1="152.4063" y2="905.1406"/></g><g class="participant participant-head" data-participant="Client"><text fill="#000000" font-family="sans-serif" font-size="14" lengthAdjust="spacing" textLength="76.2344" x="5" y="149.3301">HTTP Client</text><ellipse cx="46.1172" cy="83.2969" fill="#E2E2F0" rx="8" ry="8" style="stroke:#333333;stroke-width:0.5;"/><path d="M46.1172,91.2969 L46.1172,118.2969 M33.1172,99.2969 L59.1172,99.2969 M46.1172,118.2969 L33.1172,133.2969 M46.1172,118.2969 L59.1172,133.2969" fill="none" style="stroke:#333333;stroke-width:0.5;"/></g><g class="participant participant-tail" data-participant="Client"><text fill="#000000" font-family="sans-serif" font-size="14" lengthAdjust="spacing" textLength="76.2344" x="5" y="918.6738">HTTP Client</text><ellipse cx="46.1172" cy="930.25" fill="#E2E2F0" rx="8" ry="8" style="stroke:#333333;stroke-width:0.5;"/><path d="M46.1172,938.25 L46.1172,965.25 M33.1172,946.25 L59.1172,946.25 M46.1172,965.25 L33.1172,980.25 M46.1172,965.25 L59.1172,980.25" fill="none" style="stroke:#333333;stroke-width:0.5;"/></g><g class="participant participant-head" data-participant="Server"><text fill="#000000" font-family="sans-serif" font-size="14" lengthAdjust="spacing" textLength="41.2344" x="225.2217" y="149.3301">Server</text><path d="M228.3389,106.7969 L228.3389,130.7969 M228.3389,118.7969 L245.3389,118.7969" fill="none" style="stroke:#181818;stroke-width:0.5;"/><ellipse cx="257.3389" cy="118.7969" fill="#E2E2F0" rx="12" ry="12" style="stroke:#181818;stroke-width:0.5;"/></g><g class="participant participant-tail" data-participant="Server"><text fill="#000000" font-family="sans-serif" font-size="14" lengthAdjust="spacing" textLength="41.2344" x="225.2217" y="918.6738">Server</text><path d="M228.3389,925.75 L228.3389,949.75 M228.3389,937.75 L245.3389,937.75" fill="none" style="stroke:#181818;stroke-width:0.5;"/><ellipse cx="257.3389" cy="937.75" fill="#E2E2F0" rx="12" ry="12" style="stroke:#181818;stroke-width:0.5;"/></g><g class="participant participant-head" data-participant="Controller"><text fill="#000000" font-family="sans-serif" font-size="14" lengthAdjust="spacing" textLength="60.6895" x="424.7158" y="149.3301">Controller</text><ellipse cx="458.0605" cy="118.7969" fill="#E2E2F0" rx="12" ry="12" style="stroke:#181818;stroke-width:0.5;"/><polygon fill="#181818" points="454.0605,106.7969,460.0605,101.7969,458.0605,106.7969,460.0605,111.7969,454.0605,106.7969" style="stroke:#181818;stroke-width:1;"/></g><g class="participant participant-tail" data-participant="Controller"><text fill="#000000" font-family="sans-serif" font-size="14" lengthAdjust="spacing" textLength="60.6895" x="424.7158" y="918.6738">Controller</text><ellipse cx="458.0605" cy="937.75" fill="#E2E2F0" rx="12" ry="12" style="stroke:#181818;stroke-width:0.5;"/><polygon fill="#181818" points="454.0605,925.75,460.0605,920.75,458.0605,925.75,460.0605,930.75,454.0605,925.75" style="stroke:#181818;stroke-width:1;"/></g><g class="participant participant-head" data-participant="Service"><text fill="#000000" font-family="sans-serif" font-size="14" lengthAdjust="spacing" textLength="46.6826" x="596.1772" y="149.3301">Service</text><ellipse cx="622.5186" cy="118.7969" fill="#E2E2F0" rx="12" ry="12" style="stroke:#181818;stroke-width:0.5;"/><polygon fill="#181818" points="618.5186,106.7969,624.5186,101.7969,622.5186,106.7969,624.5186,111.7969,618.5186,106.7969" style="stroke:#181818;stroke-width:1;"/></g><g class="participant participant-tail" data-participant="Service"><text fill="#000000" font-family="sans-serif" font-size="14" lengthAdjust="spacing" textLength="46.6826" x="596.1772" y="918.6738">Service</text><ellipse cx="622.5186" cy="937.75" fill="#E2E2F0" rx="12" ry="12" style="stroke:#181818;stroke-width:0.5;"/><polygon fill="#181818" points="618.5186,925.75,624.5186,920.75,622.5186,925.75,624.5186,930.75,618.5186,925.75" style="stroke:#181818;stroke-width:1;"/></g><g class="participant participant-head" data-participant="UoW"><text fill="#000000" font-family="sans-serif" font-size="14" lengthAdjust="spacing" textLength="77.0137" x="788.7988" y="149.3301">Unit of Work</text><ellipse cx="830.3057" cy="118.7969" fill="#E2E2F0" rx="12" ry="12" style="stroke:#181818;stroke-width:0.5;"/><polygon fill="#181818" points="826.3057,106.7969,832.3057,101.7969,830.3057,106.7969,832.3057,111.7969,826.3057,106.7969" style="stroke:#181818;stroke-width:1;"/></g><g class="participant participant-tail" data-participant="UoW"><text fill="#000000" font-family="sans-serif" font-size="14" lengthAdjust="spacing" textLength="77.0137" x="788.7988" y="918.6738">Unit of Work</text><ellipse cx="830.3057" cy="937.75" fill="#E2E2F0" rx="12" ry="12" style="stroke:#181818;stroke-width:0.5;"/><polygon fill="#181818" points="826.3057,925.75,832.3057,920.75,830.3057,925.75,832.3057,930.75,826.3057,925.75" style="stroke:#181818;stroke-width:1;"/></g><g class="participant participant-head" data-participant="Repository"><text fill="#000000" font-family="sans-serif" font-size="14" lengthAdjust="spacing" textLength="66.917" x="966.9316" y="149.3301">Repository</text><ellipse cx="1003.3901" cy="118.7969" fill="#E2E2F0" rx="12" ry="12" style="stroke:#181818;stroke-width:0.5;"/><line style="stroke:#181818;stroke-width:0.5;" x1="991.3901" x2="1015.3901" y1="132.7969" y2="132.7969"/></g><g class="participant participant-tail" data-participant="Repository"><text fill="#000000" font-family="sans-serif" font-size="14" lengthAdjust="spacing" textLength="66.917" x="966.9316" y="918.6738">Repository</text><ellipse cx="1003.3901" cy="937.75" fill="#E2E2F0" rx="12" ry="12" style="stroke:#181818;stroke-width:0.5;"/><line style="stroke:#181818;stroke-width:0.5;" x1="991.3901" x2="1015.3901" y1="951.75" y2="951.75"/></g><g class="participant participant-head" data-participant="Mapper"><text fill="#000000" font-family="sans-serif" font-size="14" lengthAdjust="spacing" textLength="47.4688" x="1115.8521" y="149.3301">Mapper</text><ellipse cx="1142.5864" cy="118.7969" fill="#E2E2F0" rx="12" ry="12" style="stroke:#181818;stroke-width:0.5;"/><line style="stroke:#181818;stroke-width:0.5;" x1="1130.5864" x2="1154.5864" y1="132.7969" y2="132.7969"/></g><g class="participant participant-tail" data-participant="Mapper"><text fill="#000000" font-family="sans-serif" font-size="14" lengthAdjust="spacing" textLength="47.4688" x="1115.8521" y="918.6738">Mapper</text><ellipse cx="1142.5864" cy="937.75" fill="#E2E2F0" rx="12" ry="12" style="stroke:#181818;stroke-width:0.5;"/><line style="stroke:#181818;stroke-width:0.5;" x1="1130.5864" x2="1154.5864" y1="951.75" y2="951.75"/></g><g class="participant participant-head" data-participant="Model"><text fill="#000000" font-family="sans-serif" font-size="14" lengthAdjust="spacing" textLength="38.1309" x="1270.2163" y="149.3301">Model</text><ellipse cx="1292.2817" cy="118.7969" fill="#E2E2F0" rx="12" ry="12" style="stroke:#181818;stroke-width:0.5;"/><line style="stroke:#181818;stroke-width:0.5;" x1="1280.2817" x2="1304.2817" y1="132.7969" y2="132.7969"/></g><g class="participant participant-tail" data-participant="Model"><text fill="#000000" font-family="sans-serif" font-size="14" lengthAdjust="spacing" textLength="38.1309" x="1270.2163" y="918.6738">Model</text><ellipse cx="1292.2817" cy="937.75" fill="#E2E2F0" rx="12" ry="12" style="stroke:#181818;stroke-width:0.5;"/><line style="stroke:#181818;stroke-width:0.5;" x1="1280.2817" x2="1304.2817" y1="951.75" y2="951.75"/></g><g class="participant participant-head" data-participant="Database"><text fill="#000000" font-family="sans-serif" font-size="14" lengthAdjust="spacing" textLength="59.9307" x="1386.2427" y="149.3301">Database</text><path d="M1401.208,98.7969 C1401.208,88.7969 1419.208,88.7969 1419.208,88.7969 C1419.208,88.7969 1437.208,88.7969 1437.208,98.7969 L1437.208,124.7969 C1437.208,134.7969 1419.208,134.7969 1419.208,134.7969 C1419.208,134.7969 1401.208,134.7969 1401.208,124.7969 L1401.208,98.7969" fill="#E2E2F0" style="stroke:#181818;stroke-width:0.5;"/><path d="M1401.208,98.7969 C1401.208,108.7969 1419.208,108.7969 1419.208,108.7969 C1419.208,108.7969 1437.208,108.7969 1437.208,98.7969" fill="none" style="stroke:#181818;stroke-width:0.5;"/></g><g class="participant participant-tail" data-participant="Database"><text fill="#000000" font-family="sans-serif" font-size="14" lengthAdjust="spacing" textLength="59.9307" x="1386.2427" y="918.6738">Database</text><path d="M1401.208,931.75 C1401.208,921.75 1419.208,921.75 1419.208,921.75 C1419.208,921.75 1437.208,921.75 1437.208,931.75 L1437.208,957.75 C1437.208,967.75 1419.208,967.75 1419.208,967.75 C1419.208,967.75 1401.208,967.75 1401.208,957.75 L1401.208,931.75" fill="#E2E2F0" style="stroke:#181818;stroke-width:0.5;"/><path d="M1401.208,931.75 C1401.208,941.75 1419.208,941.75 1419.208,941.75 C1419.208,941.75 1437.208,941.75 1437.208,931.75" fill="none" style="stroke:#181818;stroke-width:0.5;"/></g><g class="participant participant-head" data-participant="Mailer"><text fill="#000000" font-family="sans-serif" font-size="14" lengthAdjust="spacing" textLength="38.1172" x="1462.1733" y="149.3301">Mailer</text><ellipse cx="1484.2319" cy="118.7969" fill="#E2E2F0" rx="12" ry="12" style="stroke:#181818;stroke-width:0.5;"/><polygon fill="#181818" points="1480.2319,106.7969,1486.2319,101.7969,1484.2319,106.7969,1486.2319,111.7969,1480.2319,106.7969" style="stroke:#181818;stroke-width:1;"/></g><g class="participant participant-tail" data-participant="Mailer"><text fill="#000000" font-family="sans-serif" font-size="14" lengthAdjust="spacing" textLength="38.1172" x="1462.1733" y="918.6738">Mailer</text><ellipse cx="1484.2319" cy="937.75" fill="#E2E2F0" rx="12" ry="12" style="stroke:#181818;stroke-width:0.5;"/><polygon fill="#181818" points="1480.2319,925.75,1486.2319,920.75,1484.2319,925.75,1486.2319,930.75,1480.2319,925.75" style="stroke:#181818;stroke-width:1;"/></g><g><title>HTTP Client</title><rect fill="#F5F5F5" height="695.3828" style="stroke:#181818;stroke-width:1;" width="10" x="41.1172" y="184.7578"/></g><g><title>Server</title><rect fill="#F5F5F5" height="628.6797" style="stroke:#181818;stroke-width:1;" width="10" x="243.8389" y="215.1094"/></g><g><title>Controller</title><rect fill="#F5F5F5" height="73.7031" style="stroke:#181818;stroke-width:1;" width="10" x="453.0605" y="215.1094"/></g><g><title>Service</title><rect fill="#F5F5F5" height="481.2734" style="stroke:#181818;stroke-width:1;" width="10" x="617.5186" y="288.8125"/></g><g><title>Unit of Work</title><rect fill="#F5F5F5" height="316.5156" style="stroke:#181818;stroke-width:1;" width="10" x="825.3057" y="362.5156"/></g><g><title>Repository</title><rect fill="#F5F5F5" height="212.4609" style="stroke:#181818;stroke-width:1;" width="10" x="998.3901" y="392.8672"/></g><g><title>Mapper</title><rect fill="#F5F5F5" height="151.7578" style="stroke:#181818;stroke-width:1;" width="10" x="1137.5864" y="423.2188"/></g><g><title>Model</title><rect fill="#F5F5F5" height="91.0547" style="stroke:#181818;stroke-width:1;" width="10" x="1287.2817" y="453.5703"/></g><g><title>Database</title><rect fill="#F5F5F5" height="30.3516" style="stroke:#181818;stroke-width:1;" width="10" x="1414.208" y="483.9219"/></g><g><title>Mailer</title><rect fill="#F5F5F5" height="30.3516" style="stroke:#181818;stroke-width:1;" width="10" x="1479.2319" y="709.3828"/></g><g class="message" data-participant-1="Client" data-participant-2="Server"><polygon fill="#CC3300" points="236.8389,180.7578,246.8389,184.7578,236.8389,188.7578,240.8389,184.7578" style="stroke:#CC3300;stroke-width:1;"/><line style="stroke:#CC3300;stroke-width:1;" x1="51.1172" x2="242.8389" y1="184.7578" y2="184.7578"/><text fill="#000000" font-family="sans-serif" font-size="13" font-weight="bold" lengthAdjust="spacing" textLength="30.3481" x="58.1172" y="179.9014">[001]</text><text fill="#000000" font-family="sans-serif" font-size="13" lengthAdjust="spacing" textLength="135.8398" x="92.4653" y="179.9014">POST /api/auth/register</text></g><g class="message" data-participant-1="Server" data-participant-2="Controller"><polygon fill="#CC3300" points="441.0605,211.1094,451.0605,215.1094,441.0605,219.1094,445.0605,215.1094" style="stroke:#CC3300;stroke-width:1;"/><line style="stroke:#CC3300;stroke-width:1;" x1="253.8389" x2="447.0605" y1="215.1094" y2="215.1094"/><text fill="#000000" font-family="sans-serif" font-size="13" font-weight="bold" lengthAdjust="spacing" textLength="30.3481" x="260.8389" y="210.2529">[002]</text><text fill="#000000" font-family="sans-serif" font-size="13" lengthAdjust="spacing" textLength="127.1753" x="295.187" y="210.2529">Routing &amp; Middleware</text></g><g class="message" data-participant-1="Controller" data-participant-2="Controller"><line style="stroke:#181818;stroke-width:1;" x1="463.0605" x2="505.0605" y1="245.4609" y2="245.4609"/><line style="stroke:#181818;stroke-width:1;" x1="505.0605" x2="505.0605" y1="245.4609" y2="258.4609"/><line style="stroke:#181818;stroke-width:1;" x1="464.0605" x2="505.0605" y1="258.4609" y2="258.4609"/><polygon fill="#181818" points="474.0605,254.4609,464.0605,258.4609,474.0605,262.4609,470.0605,258.4609" style="stroke:#181818;stroke-width:1;"/><text fill="#000000" font-family="sans-serif" font-size="13" font-weight="bold" lengthAdjust="spacing" textLength="30.3481" x="470.0605" y="240.6045">[003]</text><text fill="#000000" font-family="sans-serif" font-size="13" lengthAdjust="spacing" textLength="96.1099" x="504.4087" y="240.6045">Parsing Request</text></g><g class="message" data-participant-1="Controller" data-participant-2="Service"><polygon fill="#CC3300" points="605.5186,284.8125,615.5186,288.8125,605.5186,292.8125,609.5186,288.8125" style="stroke:#CC3300;stroke-width:1;"/><line style="stroke:#CC3300;stroke-width:1;" x1="458.0605" x2="611.5186" y1="288.8125" y2="288.8125"/><text fill="#000000" font-family="sans-serif" font-size="13" font-weight="bold" lengthAdjust="spacing" textLength="30.3481" x="465.0605" y="283.9561">[004]</text><text fill="#000000" font-family="sans-serif" font-size="13" lengthAdjust="spacing" textLength="50.5845" x="499.4087" y="283.9561">Delegasi</text></g><g class="message" data-participant-1="Service" data-participant-2="Service"><line style="stroke:#181818;stroke-width:1;" x1="627.5186" x2="669.5186" y1="319.1641" y2="319.1641"/><line style="stroke:#181818;stroke-width:1;" x1="669.5186" x2="669.5186" y1="319.1641" y2="332.1641"/><line style="stroke:#181818;stroke-width:1;" x1="628.5186" x2="669.5186" y1="332.1641" y2="332.1641"/><polygon fill="#181818" points="638.5186,328.1641,628.5186,332.1641,638.5186,336.1641,634.5186,332.1641" style="stroke:#181818;stroke-width:1;"/><text fill="#000000" font-family="sans-serif" font-size="13" font-weight="bold" lengthAdjust="spacing" textLength="30.3481" x="634.5186" y="314.3076">[005]</text><text fill="#000000" font-family="sans-serif" font-size="13" lengthAdjust="spacing" textLength="139.439" x="668.8667" y="314.3076">Orkestrasi Logika Bisnis</text></g><g class="message" data-participant-1="Service" data-participant-2="UoW"><polygon fill="#CC3300" points="813.3057,358.5156,823.3057,362.5156,813.3057,366.5156,817.3057,362.5156" style="stroke:#CC3300;stroke-width:1;"/><line style="stroke:#CC3300;stroke-width:1;" x1="627.5186" x2="819.3057" y1="362.5156" y2="362.5156"/><text fill="#000000" font-family="sans-serif" font-size="13" font-weight="bold" lengthAdjust="spacing" textLength="30.3481" x="634.5186" y="357.6592">[006]</text><text fill="#000000" font-family="sans-serif" font-size="13" lengthAdjust="spacing" textLength="127.8862" x="668.8667" y="357.6592">Manajemen Transaksi</text></g><g class="message" data-participant-1="UoW" data-participant-2="Repository"><polygon fill="#CC3300" points="986.3901,388.8672,996.3901,392.8672,986.3901,396.8672,990.3901,392.8672" style="stroke:#CC3300;stroke-width:1;"/><line style="stroke:#CC3300;stroke-width:1;" x1="835.3057" x2="992.3901" y1="392.8672" y2="392.8672"/><text fill="#000000" font-family="sans-serif" font-size="13" font-weight="bold" lengthAdjust="spacing" textLength="30.3481" x="842.3057" y="388.0107">[007]</text><text fill="#000000" font-family="sans-serif" font-size="13" lengthAdjust="spacing" textLength="66.4727" x="876.6538" y="388.0107">Akses Data</text></g><g class="message" data-participant-1="Repository" data-participant-2="Mapper"><polygon fill="#CC3300" points="1125.5864,419.2188,1135.5864,423.2188,1125.5864,427.2188,1129.5864,423.2188" style="stroke:#CC3300;stroke-width:1;"/><line style="stroke:#CC3300;stroke-width:1;" x1="1008.3901" x2="1131.5864" y1="423.2188" y2="423.2188"/><text fill="#000000" font-family="sans-serif" font-size="13" font-weight="bold" lengthAdjust="spacing" textLength="30.3481" x="1015.3901" y="418.3623">[008]</text><text fill="#000000" font-family="sans-serif" font-size="13" lengthAdjust="spacing" textLength="75.8481" x="1049.7383" y="418.3623">Transformasi</text></g><g class="message" data-participant-1="Mapper" data-participant-2="Model"><polygon fill="#CC3300" points="1275.2817,449.5703,1285.2817,453.5703,1275.2817,457.5703,1279.2817,453.5703" style="stroke:#CC3300;stroke-width:1;"/><line style="stroke:#CC3300;stroke-width:1;" x1="1147.5864" x2="1281.2817" y1="453.5703" y2="453.5703"/><text fill="#000000" font-family="sans-serif" font-size="13" font-weight="bold" lengthAdjust="spacing" textLength="30.3481" x="1154.5864" y="448.7139">[009]</text><text fill="#000000" font-family="sans-serif" font-size="13" lengthAdjust="spacing" textLength="86.3472" x="1188.9346" y="448.7139">Entity &#8596; Model</text></g><g class="message" data-participant-1="Model" data-participant-2="Database"><polygon fill="#CC3300" points="1402.208,479.9219,1412.208,483.9219,1402.208,487.9219,1406.208,483.9219" style="stroke:#CC3300;stroke-width:1;"/><line style="stroke:#CC3300;stroke-width:1;" x1="1297.2817" x2="1408.208" y1="483.9219" y2="483.9219"/><text fill="#000000" font-family="sans-serif" font-size="13" font-weight="bold" lengthAdjust="spacing" textLength="30.3481" x="1304.2817" y="479.0654">[010]</text><text fill="#000000" font-family="sans-serif" font-size="13" lengthAdjust="spacing" textLength="63.5781" x="1338.6299" y="479.0654">Persistensi</text></g><g class="message" data-participant-1="Database" data-participant-2="Model"><polygon fill="#006600" points="1308.2817,510.2734,1298.2817,514.2734,1308.2817,518.2734,1304.2817,514.2734" style="stroke:#006600;stroke-width:1;"/><line style="stroke:#006600;stroke-width:1;stroke-dasharray:2,2;" x1="1302.2817" x2="1418.208" y1="514.2734" y2="514.2734"/><text fill="#000000" font-family="sans-serif" font-size="13" font-weight="bold" lengthAdjust="spacing" textLength="30.3481" x="1314.2817" y="509.417">[011]</text><text fill="#000000" font-family="sans-serif" font-size="13" lengthAdjust="spacing" textLength="49.1309" x="1348.6299" y="509.417">Success</text></g><g class="message" data-participant-1="Model" data-participant-2="Mapper"><polygon fill="#006600" points="1158.5864,540.625,1148.5864,544.625,1158.5864,548.625,1154.5864,544.625" style="stroke:#006600;stroke-width:1;"/><line style="stroke:#006600;stroke-width:1;stroke-dasharray:2,2;" x1="1152.5864" x2="1291.2817" y1="544.625" y2="544.625"/><text fill="#000000" font-family="sans-serif" font-size="13" font-weight="bold" lengthAdjust="spacing" textLength="30.3481" x="1164.5864" y="539.7686">[012]</text><text fill="#000000" font-family="sans-serif" font-size="13" lengthAdjust="spacing" textLength="27.46" x="1198.9346" y="539.7686">Data</text></g><g class="message" data-participant-1="Mapper" data-participant-2="Repository"><polygon fill="#006600" points="1019.3901,570.9766,1009.3901,574.9766,1019.3901,578.9766,1015.3901,574.9766" style="stroke:#006600;stroke-width:1;"/><line style="stroke:#006600;stroke-width:1;stroke-dasharray:2,2;" x1="1013.3901" x2="1141.5864" y1="574.9766" y2="574.9766"/><text fill="#000000" font-family="sans-serif" font-size="13" font-weight="bold" lengthAdjust="spacing" textLength="30.3481" x="1025.3901" y="570.1201">[013]</text><text fill="#000000" font-family="sans-serif" font-size="13" lengthAdjust="spacing" textLength="32.5127" x="1059.7383" y="570.1201">Entity</text></g><g class="message" data-participant-1="Repository" data-participant-2="Service"><polygon fill="#006600" points="638.5186,601.3281,628.5186,605.3281,638.5186,609.3281,634.5186,605.3281" style="stroke:#006600;stroke-width:1;"/><line style="stroke:#006600;stroke-width:1;stroke-dasharray:2,2;" x1="632.5186" x2="1002.3901" y1="605.3281" y2="605.3281"/><text fill="#000000" font-family="sans-serif" font-size="13" font-weight="bold" lengthAdjust="spacing" textLength="30.3481" x="644.5186" y="600.4717">[014]</text><text fill="#000000" font-family="sans-serif" font-size="13" lengthAdjust="spacing" textLength="36.8481" x="678.8667" y="600.4717">Result</text></g><g class="message" data-participant-1="UoW" data-participant-2="UoW"><line style="stroke:#181818;stroke-width:1;" x1="835.3057" x2="877.3057" y1="635.6797" y2="635.6797"/><line style="stroke:#181818;stroke-width:1;" x1="877.3057" x2="877.3057" y1="635.6797" y2="648.6797"/><line style="stroke:#181818;stroke-width:1;" x1="836.3057" x2="877.3057" y1="648.6797" y2="648.6797"/><polygon fill="#181818" points="846.3057,644.6797,836.3057,648.6797,846.3057,652.6797,842.3057,648.6797" style="stroke:#181818;stroke-width:1;"/><text fill="#000000" font-family="sans-serif" font-size="13" font-weight="bold" lengthAdjust="spacing" textLength="30.3481" x="842.3057" y="630.8232">[015]</text><text fill="#000000" font-family="sans-serif" font-size="13" lengthAdjust="spacing" textLength="104.7363" x="876.6538" y="630.8232">Commit Transaksi</text></g><g class="message" data-participant-1="UoW" data-participant-2="Service"><polygon fill="#006600" points="638.5186,675.0313,628.5186,679.0313,638.5186,683.0313,634.5186,679.0313" style="stroke:#006600;stroke-width:1;"/><line style="stroke:#006600;stroke-width:1;stroke-dasharray:2,2;" x1="632.5186" x2="829.3057" y1="679.0313" y2="679.0313"/><text fill="#000000" font-family="sans-serif" font-size="13" font-weight="bold" lengthAdjust="spacing" textLength="30.3481" x="644.5186" y="674.1748">[016]</text><text fill="#000000" font-family="sans-serif" font-size="13" lengthAdjust="spacing" textLength="62.8672" x="678.8667" y="674.1748">Completed</text></g><g class="message" data-participant-1="Service" data-participant-2="Mailer"><polygon fill="#CC6600" points="1467.2319,705.3828,1477.2319,709.3828,1467.2319,713.3828,1471.2319,709.3828" style="stroke:#CC6600;stroke-width:1;"/><line style="stroke:#CC6600;stroke-width:1;" x1="627.5186" x2="1473.2319" y1="709.3828" y2="709.3828"/><text fill="#000000" font-family="sans-serif" font-size="13" font-weight="bold" lengthAdjust="spacing" textLength="30.3481" x="634.5186" y="704.5264">[017]</text><text fill="#000000" font-family="sans-serif" font-size="13" lengthAdjust="spacing" textLength="182.0825" x="668.8667" y="704.5264">Pengiriman OTP Asynchronous</text></g><g class="message" data-participant-1="Mailer" data-participant-2="Service"><polygon fill="#006600" points="638.5186,735.7344,628.5186,739.7344,638.5186,743.7344,634.5186,739.7344" style="stroke:#006600;stroke-width:1;"/><line style="stroke:#006600;stroke-width:1;stroke-dasharray:2,2;" x1="632.5186" x2="1483.2319" y1="739.7344" y2="739.7344"/><text fill="#000000" font-family="sans-serif" font-size="13" font-weight="bold" lengthAdjust="spacing" textLength="30.3481" x="644.5186" y="734.8779">[018]</text><text fill="#000000" font-family="sans-serif" font-size="13" lengthAdjust="spacing" textLength="82.3799" x="678.8667" y="734.8779">Email Queued</text></g><g class="message" data-participant-1="Service" data-participant-2="Server"><polygon fill="#006600" points="264.8389,766.0859,254.8389,770.0859,264.8389,774.0859,260.8389,770.0859" style="stroke:#006600;stroke-width:1;"/><line style="stroke:#006600;stroke-width:1;stroke-dasharray:2,2;" x1="258.8389" x2="621.5186" y1="770.0859" y2="770.0859"/><text fill="#000000" font-family="sans-serif" font-size="13" font-weight="bold" lengthAdjust="spacing" textLength="30.3481" x="270.8389" y="765.2295">[019]</text><text fill="#000000" font-family="sans-serif" font-size="13" lengthAdjust="spacing" textLength="89.6099" x="305.187" y="765.2295">Response Data</text></g><g class="message" data-participant-1="Server" data-participant-2="Server"><line style="stroke:#181818;stroke-width:1;" x1="253.8389" x2="295.8389" y1="800.4375" y2="800.4375"/><line style="stroke:#181818;stroke-width:1;" x1="295.8389" x2="295.8389" y1="800.4375" y2="813.4375"/><line style="stroke:#181818;stroke-width:1;" x1="254.8389" x2="295.8389" y1="813.4375" y2="813.4375"/><polygon fill="#181818" points="264.8389,809.4375,254.8389,813.4375,264.8389,817.4375,260.8389,813.4375" style="stroke:#181818;stroke-width:1;"/><text fill="#000000" font-family="sans-serif" font-size="13" font-weight="bold" lengthAdjust="spacing" textLength="30.3481" x="260.8389" y="795.5811">[020]</text><text fill="#000000" font-family="sans-serif" font-size="13" lengthAdjust="spacing" textLength="140.8735" x="295.187" y="795.5811">Format HTTP Response</text></g><g class="message" data-participant-1="Server" data-participant-2="Client"><polygon fill="#006600" points="62.1172,839.7891,52.1172,843.7891,62.1172,847.7891,58.1172,843.7891" style="stroke:#006600;stroke-width:1;"/><line style="stroke:#006600;stroke-width:1;stroke-dasharray:2,2;" x1="56.1172" x2="247.8389" y1="843.7891" y2="843.7891"/><text fill="#000000" font-family="sans-serif" font-size="13" font-weight="bold" lengthAdjust="spacing" textLength="30.3481" x="68.1172" y="838.9326">[021]</text><text fill="#000000" font-family="sans-serif" font-size="13" lengthAdjust="spacing" textLength="134.3735" x="102.4653" y="838.9326">HTTP Response JSON</text></g><g class="message" data-participant-1="Client" data-participant-2="Client"><line style="stroke:#181818;stroke-width:1;" x1="51.1172" x2="93.1172" y1="879.1406" y2="879.1406"/><line style="stroke:#181818;stroke-width:1;" x1="93.1172" x2="93.1172" y1="879.1406" y2="892.1406"/><line style="stroke:#181818;stroke-width:1;" x1="46.1172" x2="93.1172" y1="892.1406" y2="892.1406"/><polygon fill="#181818" points="56.1172,888.1406,46.1172,892.1406,56.1172,896.1406,52.1172,892.1406" style="stroke:#181818;stroke-width:1;"/><text fill="#000000" font-family="sans-serif" font-size="13" font-weight="bold" lengthAdjust="spacing" textLength="30.3481" x="58.1172" y="874.2842">[022]</text><text fill="#000000" font-family="sans-serif" font-size="13" lengthAdjust="spacing" textLength="109.1099" x="92.4653" y="874.2842">Process Response</text></g><text fill="#888888" font-family="sans-serif" font-size="10" lengthAdjust="spacing" textLength="120.0732" x="1390.2173" y="15.3809">API Registration Sequence</text><text fill="#888888" font-family="sans-serif" font-size="10" lengthAdjust="spacing" textLength="51.1523" x="729.5691" y="993.1309">Page 1 of 1</text><!--SRC=[TLJ1RXCn4BtxAqQfn25Ir5GH5KAeKfes0jIGaAJgeN1mToUfoSPUR6-hWhZo1NmXNyBOwrrxGvkzU3FlpPkTUHwp4xBack_1uFSAPORmam6CCwlqkT8vweagb8QZaVzHw4fiy4f8x4HF_I-DycotrQgIUK1CNxk740kkhSX4oQLzNY0576QvVEEUBcYgf5s97mWd8_QBCIjiWT3lBt4hZDNS2YLXMgZ7Vl-BNCnNQpZcfJZcbRq_rXw3cjqZfqfWlFW07TugD8Ljb28SoMv91zG6JXZZhadGUxzUBs1I29Is1zo48xjpPNFz1BqLwWVKFbOVMKObQrL0Rr8VYX2Ehn7YA2B3baxd6BoMmhfgRfJUUSIrkc6aBYpfBh5KHb2DJpuKNrl4Z9TbaAwFCQ9oBEg0Ex6SMtx73KBl8fnyi7c95SsuADgKxaXzggoIrVwE-jTxTtTsEnmEl_OOg_i4WzkZoMGqel_EGdlWBRmq9sgvUE0McoQpm4YJn2PIegMgh91RU0KpaUS5FdADCKiOHymQ-y-ID8E3f6G-uv8kdJkCxK0FleQcHOGBB73BZM0vFgVLgSVDbpNKGPfbhdVed6a4NAcjs74u5qOA4z69E1c1A3Ck-JVSeuIrvjBm7TNGgZclC8TBUT4bH1_l3DP3Zgp4HYm1fpbgBn7VYswKtlDKDrYD1LY7wSn6nClQXdz__md-YsJ_ocfWIcsiwEQ3D1_oYqnLMwko5adquV3qbEY3ABsgiWoDIKSLgQrimci-rhSfOJMLjbyPEPqcrz_QOOO6TTiRwT4IIpHLOLDkEXu_syOA4xNVqxA8FWYJVoujOSi2BUPfPc-NZjKyyIpSSzztkHLQxBc4EUt4iNcIsRrMKbKcdRxV2e7qGW6NUmh3vmghRWtDIadAwDBhIu-cLDBWVoFftA_wOhUagREf1R_DcmJ9UeaoOM-zxKBXush-wL3Bxv6mvXBYGYjdiIYJheMmsDW_]--></g></svg>