<svg xmlns="http://www.w3.org/2000/svg" xmlns:xlink="http://www.w3.org/1999/xlink" contentStyleType="text/css" data-diagram-type="SEQUENCE" height="1392px" preserveAspectRatio="none" style="width:1944px;height:1392px;background:#FFFFFF;" version="1.1" viewBox="0 0 1944 1392" width="1944px" zoomAndPan="magnify"><title>Request-Response Flow - notefibe</title><defs/><g><text fill="#000000" font-family="sans-serif" font-size="14" font-weight="bold" lengthAdjust="spacing" textLength="229.4619" x="853.6353" y="29.5332">Request-Response Flow - notefibe</text><g><title>Browser</title><rect fill="#FFFFFF" height="1071.0469" style="stroke:#181818;stroke-width:1;" width="10" x="148.3237" y="221.8203"/></g><g><title>routes</title><rect fill="#FFFFFF" height="1049.6953" style="stroke:#181818;stroke-width:1;" width="10" x="253.5728" y="252.1719"/></g><g><title>pages</title><rect fill="#FFFFFF" height="30.3516" style="stroke:#181818;stroke-width:1;" width="10" x="427.5161" y="282.5234"/></g><g><title>hooks</title><rect fill="#FFFFFF" height="919.2891" style="stroke:#181818;stroke-width:1;" width="10" x="538.4331" y="343.2266"/></g><g><title>contexts</title><rect fill="#FFFFFF" height="858.5859" style="stroke:#181818;stroke-width:1;" width="10" x="674.0093" y="373.5781"/></g><g><title>api</title><rect fill="#FFFFFF" height="797.8828" style="stroke:#181818;stroke-width:1;" width="10" x="802.3555" y="403.9297"/></g><g><title>cmd.rest</title><rect fill="#FFFFFF" height="652.5781" style="stroke:#181818;stroke-width:1;" width="10" x="963.9717" y="518.8828"/></g><g><title>middleware</title><rect fill="#FFFFFF" height="117.0547" style="stroke:#181818;stroke-width:1;" width="10" x="1110.4424" y="549.2344"/></g><g><title>controller</title><rect fill="#FFFFFF" height="359.8672" style="stroke:#181818;stroke-width:1;" width="10" x="1269.8477" y="696.6406"/></g><g><title>service</title><rect fill="#FFFFFF" height="255.8125" style="stroke:#181818;stroke-width:1;" width="10" x="1455.3311" y="726.9922"/></g><g><title>repository</title><rect fill="#FFFFFF" height="151.7578" style="stroke:#181818;stroke-width:1;" width="10" x="1647.96" y="757.3438"/></g><g><title>entity</title><rect fill="#FFFFFF" height="91.0547" style="stroke:#181818;stroke-width:1;" width="10" x="1774.1162" y="787.6953"/></g><g><title>PostgreSQL</title><rect fill="#FFFFFF" height="30.3516" style="stroke:#181818;stroke-width:1;" width="10" x="1886.6016" y="818.0469"/></g><g><title>User</title><rect fill="#000000" fill-opacity="0.00000" height="1189.6484" width="8" x="18.7793" y="121.2188"/><line style="stroke:#181818;stroke-width:0.5;stroke-dasharray:5,5;" x1="22" x2="22" y1="121.2188" y2="1310.8672"/></g><g><title>Browser</title><rect fill="#000000" fill-opacity="0.00000" height="1189.6484" width="8" x="149.3237" y="121.2188"/><line style="stroke:#181818;stroke-width:0.5;stroke-dasharray:5,5;" x1="152.9756" x2="152.9756" y1="121.2188" y2="1310.8672"/></g><g><title>routes</title><rect fill="#000000" fill-opacity="0.00000" height="1189.6484" width="8" x="254.5728" y="121.2188"/><line style="stroke:#181818;stroke-width:0.5;stroke-dasharray:5,5;" x1="257.9004" x2="257.9004" y1="121.2188" y2="1310.8672"/></g><g><title>pages</title><rect fill="#000000" fill-opacity="0.00000" height="1189.6484" width="8" x="428.5161" y="121.2188"/><line style="stroke:#181818;stroke-width:0.5;stroke-dasharray:5,5;" x1="432.1646" x2="432.1646" y1="121.2188" y2="1310.8672"/></g><g><title>hooks</title><rect fill="#000000" fill-opacity="0.00000" height="1189.6484" width="8" x="539.4331" y="121.2188"/><line style="stroke:#181818;stroke-width:0.5;stroke-dasharray:5,5;" x1="542.8677" x2="542.8677" y1="121.2188" y2="1310.8672"/></g><g><title>contexts</title><rect fill="#000000" fill-opacity="0.00000" height="1189.6484" width="8" x="675.0093" y="121.2188"/><line style="stroke:#181818;stroke-width:0.5;stroke-dasharray:5,5;" x1="678.9404" x2="678.9404" y1="121.2188" y2="1310.8672"/></g><g><title>api</title><rect fill="#000000" fill-opacity="0.00000" height="1189.6484" width="8" x="803.3555" y="121.2188"/><line style="stroke:#181818;stroke-width:0.5;stroke-dasharray:5,5;" x1="806.5762" x2="806.5762" y1="121.2188" y2="1310.8672"/></g><g><title>cmd.rest</title><rect fill="#000000" fill-opacity="0.00000" height="1189.6484" width="8" x="964.9717" y="121.2188"/><line style="stroke:#181818;stroke-width:0.5;stroke-dasharray:5,5;" x1="968.1338" x2="968.1338" y1="121.2188" y2="1310.8672"/></g><g><title>middleware</title><rect fill="#000000" fill-opacity="0.00000" height="1189.6484" width="8" x="1111.4424" y="121.2188"/><line style="stroke:#181818;stroke-width:0.5;stroke-dasharray:5,5;" x1="1114.6494" x2="1114.6494" y1="121.2188" y2="1310.8672"/></g><g><title>controller</title><rect fill="#000000" fill-opacity="0.00000" height="1189.6484" width="8" x="1270.8477" y="121.2188"/><line style="stroke:#181818;stroke-width:0.5;stroke-dasharray:5,5;" x1="1274.6719" x2="1274.6719" y1="121.2188" y2="1310.8672"/></g><g><title>service</title><rect fill="#000000" fill-opacity="0.00000" height="1189.6484" width="8" x="1456.3311" y="121.2188"/><line style="stroke:#181818;stroke-width:0.5;stroke-dasharray:5,5;" x1="1460.1587" x2="1460.1587" y1="121.2188" y2="1310.8672"/></g><g><title>repository</title><rect fill="#000000" fill-opacity="0.00000" height="1189.6484" width="8" x="1648.96" y="121.2188"/><line style="stroke:#181818;stroke-width:0.5;stroke-dasharray:5,5;" x1="1652.0049" x2="1652.0049" y1="121.2188" y2="1310.8672"/></g><g><title>entity</title><rect fill="#000000" fill-opacity="0.00000" height="1189.6484" width="8" x="1775.1162" y="121.2188"/><line style="stroke:#181818;stroke-width:0.5;stroke-dasharray:5,5;" x1="1778.8887" x2="1778.8887" y1="121.2188" y2="1310.8672"/></g><g><title>PostgreSQL</title><rect fill="#000000" fill-opacity="0.00000" height="1189.6484" width="8" x="1887.6016" y="121.2188"/><line style="stroke:#181818;stroke-width:0.5;stroke-dasharray:5,5;" x1="1891.4707" x2="1891.4707" y1="121.2188" y2="1310.8672"/></g><g class="participant participant-head" data-participant="user"><text fill="#000000" font-family="sans-serif" font-size="14" lengthAdjust="spacing" textLength="29.5586" x="5" y="118.1426">User</text><ellipse cx="22.7793" cy="52.1094" fill="#E2E2F0" rx="8" ry="8" style="stroke:#181818;stroke-width:0.5;"/><path d="M22.7793,60.1094 L22.7793,87.1094 M9.7793,68.1094 L35.7793,68.1094 M22.7793,87.1094 L9.7793,102.1094 M22.7793,87.1094 L35.7793,102.1094" fill="none" style="stroke:#181818;stroke-width:0.5;"/></g><g class="participant participant-tail" data-participant="user"><text fill="#000000" font-family="sans-serif" font-size="14" lengthAdjust="spacing" textLength="29.5586" x="5" y="1324.4004">User</text><ellipse cx="22.7793" cy="1335.9766" fill="#E2E2F0" rx="8" ry="8" style="stroke:#181818;stroke-width:0.5;"/><path d="M22.7793,1343.9766 L22.7793,1370.9766 M9.7793,1351.9766 L35.7793,1351.9766 M22.7793,1370.9766 L9.7793,1385.9766 M22.7793,1370.9766 L35.7793,1385.9766" fill="none" style="stroke:#181818;stroke-width:0.5;"/></g><g class="participant participant-head" data-participant="browser"><text fill="#000000" font-family="sans-serif" font-size="14" lengthAdjust="spacing" textLength="51.3447" x="124.6514" y="100.5332">Browser</text><text fill="#000000" font-family="sans-serif" font-size="14" lengthAdjust="spacing" textLength="74.6963" x="112.9756" y="118.1426">(React App)</text><path d="M132.8237,58 L132.8237,82 M132.8237,70 L149.8237,70" fill="none" style="stroke:#181818;stroke-width:0.5;"/><ellipse cx="161.8237" cy="70" fill="#E2E2F0" rx="12" ry="12" style="stroke:#181818;stroke-width:0.5;"/></g><g class="participant participant-tail" data-participant="browser"><text fill="#000000" font-family="sans-serif" font-size="14" lengthAdjust="spacing" textLength="51.3447" x="124.6514" y="1324.4004">Browser</text><text fill="#000000" font-family="sans-serif" font-size="14" lengthAdjust="spacing" textLength="74.6963" x="112.9756" y="1342.0098">(React App)</text><path d="M132.8237,1349.0859 L132.8237,1373.0859 M132.8237,1361.0859 L149.8237,1361.0859" fill="none" style="stroke:#181818;stroke-width:0.5;"/><ellipse cx="161.8237" cy="1361.0859" fill="#E2E2F0" rx="12" ry="12" style="stroke:#181818;stroke-width:0.5;"/></g><g class="participant participant-head" data-participant="routes"><text fill="#000000" font-family="sans-serif" font-size="14" lengthAdjust="spacing" textLength="38.9102" x="236.1177" y="100.5332">routes</text><text fill="#000000" font-family="sans-serif" font-size="14" lengthAdjust="spacing" textLength="51.3447" x="229.9004" y="118.1426">(Router)</text><ellipse cx="258.5728" cy="70" fill="#E2E2F0" rx="12" ry="12" style="stroke:#181818;stroke-width:0.5;"/><polygon fill="#181818" points="254.5728,58,260.5728,53,258.5728,58,260.5728,63,254.5728,58" style="stroke:#181818;stroke-width:1;"/></g><g class="participant participant-tail" data-participant="routes"><text fill="#000000" font-family="sans-serif" font-size="14" lengthAdjust="spacing" textLength="38.9102" x="236.1177" y="1324.4004">routes</text><text fill="#000000" font-family="sans-serif" font-size="14" lengthAdjust="spacing" textLength="51.3447" x="229.9004" y="1342.0098">(Router)</text><ellipse cx="258.5728" cy="1361.0859" fill="#E2E2F0" rx="12" ry="12" style="stroke:#181818;stroke-width:0.5;"/><polygon fill="#181818" points="254.5728,1349.0859,260.5728,1344.0859,258.5728,1349.0859,260.5728,1354.0859,254.5728,1349.0859" style="stroke:#181818;stroke-width:1;"/></g><g class="participant participant-head" data-participant="pages"><text fill="#000000" font-family="sans-serif" font-size="14" lengthAdjust="spacing" textLength="38.1445" x="410.4438" y="100.5332">pages</text><text fill="#000000" font-family="sans-serif" font-size="14" lengthAdjust="spacing" textLength="88.7031" x="385.1646" y="118.1426">(Components)</text><path d="M412.0161,58 L412.0161,82 M412.0161,70 L429.0161,70" fill="none" style="stroke:#181818;stroke-width:0.5;"/><ellipse cx="441.0161" cy="70" fill="#E2E2F0" rx="12" ry="12" style="stroke:#181818;stroke-width:0.5;"/></g><g class="participant participant-tail" data-participant="pages"><text fill="#000000" font-family="sans-serif" font-size="14" lengthAdjust="spacing" textLength="38.1445" x="410.4438" y="1324.4004">pages</text><text fill="#000000" font-family="sans-serif" font-size="14" lengthAdjust="spacing" textLength="88.7031" x="385.1646" y="1342.0098">(Components)</text><path d="M412.0161,1349.0859 L412.0161,1373.0859 M412.0161,1361.0859 L429.0161,1361.0859" fill="none" style="stroke:#181818;stroke-width:0.5;"/><ellipse cx="441.0161" cy="1361.0859" fill="#E2E2F0" rx="12" ry="12" style="stroke:#181818;stroke-width:0.5;"/></g><g class="participant participant-head" data-participant="hooks"><text fill="#000000" font-family="sans-serif" font-size="14" lengthAdjust="spacing" textLength="37.3584" x="521.7539" y="100.5332">hooks</text><text fill="#000000" font-family="sans-serif" font-size="14" lengthAdjust="spacing" textLength="101.1309" x="489.8677" y="118.1426">(Custom Hooks)</text><ellipse cx="543.4331" cy="70" fill="#E2E2F0" rx="12" ry="12" style="stroke:#181818;stroke-width:0.5;"/><polygon fill="#181818" points="539.4331,58,545.4331,53,543.4331,58,545.4331,63,539.4331,58" style="stroke:#181818;stroke-width:1;"/></g><g class="participant participant-tail" data-participant="hooks"><text fill="#000000" font-family="sans-serif" font-size="14" lengthAdjust="spacing" textLength="37.3584" x="521.7539" y="1324.4004">hooks</text><text fill="#000000" font-family="sans-serif" font-size="14" lengthAdjust="spacing" textLength="101.1309" x="489.8677" y="1342.0098">(Custom Hooks)</text><ellipse cx="543.4331" cy="1361.0859" fill="#E2E2F0" rx="12" ry="12" style="stroke:#181818;stroke-width:0.5;"/><polygon fill="#181818" points="539.4331,1349.0859,545.4331,1344.0859,543.4331,1349.0859,545.4331,1354.0859,539.4331,1349.0859" style="stroke:#181818;stroke-width:1;"/></g><g class="participant participant-head" data-participant="contexts"><text fill="#000000" font-family="sans-serif" font-size="14" lengthAdjust="spacing" textLength="52.1377" x="649.9404" y="100.5332">contexts</text><text fill="#000000" font-family="sans-serif" font-size="14" lengthAdjust="spacing" textLength="42.0137" x="655.0024" y="118.1426">(State)</text><ellipse cx="679.0093" cy="70" fill="#E2E2F0" rx="12" ry="12" style="stroke:#181818;stroke-width:0.5;"/><polygon fill="#181818" points="675.0093,58,681.0093,53,679.0093,58,681.0093,63,675.0093,58" style="stroke:#181818;stroke-width:1;"/></g><g class="participant participant-tail" data-participant="contexts"><text fill="#000000" font-family="sans-serif" font-size="14" lengthAdjust="spacing" textLength="52.1377" x="649.9404" y="1324.4004">contexts</text><text fill="#000000" font-family="sans-serif" font-size="14" lengthAdjust="spacing" textLength="42.0137" x="655.0024" y="1342.0098">(State)</text><ellipse cx="679.0093" cy="1361.0859" fill="#E2E2F0" rx="12" ry="12" style="stroke:#181818;stroke-width:0.5;"/><polygon fill="#181818" points="675.0093,1349.0859,681.0093,1344.0859,679.0093,1349.0859,681.0093,1354.0859,675.0093,1349.0859" style="stroke:#181818;stroke-width:1;"/></g><g class="participant participant-head" data-participant="api"><text fill="#000000" font-family="sans-serif" font-size="14" lengthAdjust="spacing" textLength="18.6826" x="795.0142" y="100.5332">api</text><text fill="#000000" font-family="sans-serif" font-size="14" lengthAdjust="spacing" textLength="85.5586" x="761.5762" y="118.1426">(HTTP Client)</text><path d="M786.8555,58 L786.8555,82 M786.8555,70 L803.8555,70" fill="none" style="stroke:#181818;stroke-width:0.5;"/><ellipse cx="815.8555" cy="70" fill="#E2E2F0" rx="12" ry="12" style="stroke:#181818;stroke-width:0.5;"/></g><g class="participant participant-tail" data-participant="api"><text fill="#000000" font-family="sans-serif" font-size="14" lengthAdjust="spacing" textLength="18.6826" x="795.0142" y="1324.4004">api</text><text fill="#000000" font-family="sans-serif" font-size="14" lengthAdjust="spacing" textLength="85.5586" x="761.5762" y="1342.0098">(HTTP Client)</text><path d="M786.8555,1349.0859 L786.8555,1373.0859 M786.8555,1361.0859 L803.8555,1361.0859" fill="none" style="stroke:#181818;stroke-width:0.5;"/><ellipse cx="815.8555" cy="1361.0859" fill="#E2E2F0" rx="12" ry="12" style="stroke:#181818;stroke-width:0.5;"/></g><g class="participant participant-head" data-participant="rest"><text fill="#000000" font-family="sans-serif" font-size="14" lengthAdjust="spacing" textLength="53.6758" x="939.1338" y="100.5332">cmd/rest</text><text fill="#000000" font-family="sans-serif" font-size="14" lengthAdjust="spacing" textLength="42" x="944.9717" y="118.1426">(Entry)</text><ellipse cx="968.9717" cy="70" fill="#E2E2F0" rx="12" ry="12" style="stroke:#181818;stroke-width:0.5;"/><polygon fill="#181818" points="964.9717,58,970.9717,53,968.9717,58,970.9717,63,964.9717,58" style="stroke:#181818;stroke-width:1;"/></g><g class="participant participant-tail" data-participant="rest"><text fill="#000000" font-family="sans-serif" font-size="14" lengthAdjust="spacing" textLength="53.6758" x="939.1338" y="1324.4004">cmd/rest</text><text fill="#000000" font-family="sans-serif" font-size="14" lengthAdjust="spacing" textLength="42" x="944.9717" y="1342.0098">(Entry)</text><ellipse cx="968.9717" cy="1361.0859" fill="#E2E2F0" rx="12" ry="12" style="stroke:#181818;stroke-width:0.5;"/><polygon fill="#181818" points="964.9717,1349.0859,970.9717,1344.0859,968.9717,1349.0859,970.9717,1354.0859,964.9717,1349.0859" style="stroke:#181818;stroke-width:1;"/></g><g class="participant participant-head" data-participant="middleware"><text fill="#000000" font-family="sans-serif" font-size="14" lengthAdjust="spacing" textLength="71.5859" x="1076.6494" y="100.5332">middleware</text><text fill="#000000" font-family="sans-serif" font-size="14" lengthAdjust="spacing" textLength="38.124" x="1093.3804" y="118.1426">(Auth)</text><ellipse cx="1115.4424" cy="70" fill="#E2E2F0" rx="12" ry="12" style="stroke:#181818;stroke-width:0.5;"/><polygon fill="#181818" points="1111.4424,58,1117.4424,53,1115.4424,58,1117.4424,63,1111.4424,58" style="stroke:#181818;stroke-width:1;"/></g><g class="participant participant-tail" data-participant="middleware"><text fill="#000000" font-family="sans-serif" font-size="14" lengthAdjust="spacing" textLength="71.5859" x="1076.6494" y="1324.4004">middleware</text><text fill="#000000" font-family="sans-serif" font-size="14" lengthAdjust="spacing" textLength="38.124" x="1093.3804" y="1342.0098">(Auth)</text><ellipse cx="1115.4424" cy="1361.0859" fill="#E2E2F0" rx="12" ry="12" style="stroke:#181818;stroke-width:0.5;"/><polygon fill="#181818" points="1111.4424,1349.0859,1117.4424,1344.0859,1115.4424,1349.0859,1117.4424,1354.0859,1111.4424,1349.0859" style="stroke:#181818;stroke-width:1;"/></g><g class="participant participant-head" data-participant="controller"><text fill="#000000" font-family="sans-serif" font-size="14" lengthAdjust="spacing" textLength="57.5791" x="1243.0581" y="100.5332">controller</text><text fill="#000000" font-family="sans-serif" font-size="14" lengthAdjust="spacing" textLength="58.3516" x="1242.6719" y="118.1426">(Handler)</text><ellipse cx="1274.8477" cy="70" fill="#E2E2F0" rx="12" ry="12" style="stroke:#181818;stroke-width:0.5;"/><polygon fill="#181818" points="1270.8477,58,1276.8477,53,1274.8477,58,1276.8477,63,1270.8477,58" style="stroke:#181818;stroke-width:1;"/></g><g class="participant participant-tail" data-participant="controller"><text fill="#000000" font-family="sans-serif" font-size="14" lengthAdjust="spacing" textLength="57.5791" x="1243.0581" y="1324.4004">controller</text><text fill="#000000" font-family="sans-serif" font-size="14" lengthAdjust="spacing" textLength="58.3516" x="1242.6719" y="1342.0098">(Handler)</text><ellipse cx="1274.8477" cy="1361.0859" fill="#E2E2F0" rx="12" ry="12" style="stroke:#181818;stroke-width:0.5;"/><polygon fill="#181818" points="1270.8477,1349.0859,1276.8477,1344.0859,1274.8477,1349.0859,1276.8477,1354.0859,1270.8477,1349.0859" style="stroke:#181818;stroke-width:1;"/></g><g class="participant participant-head" data-participant="service"><text fill="#000000" font-family="sans-serif" font-size="14" lengthAdjust="spacing" textLength="44.3447" x="1435.1587" y="100.5332">service</text><text fill="#000000" font-family="sans-serif" font-size="14" lengthAdjust="spacing" textLength="42.793" x="1435.9346" y="118.1426">(Logic)</text><ellipse cx="1460.3311" cy="70" fill="#E2E2F0" rx="12" ry="12" style="stroke:#181818;stroke-width:0.5;"/><polygon fill="#181818" points="1456.3311,58,1462.3311,53,1460.3311,58,1462.3311,63,1456.3311,58" style="stroke:#181818;stroke-width:1;"/></g><g class="participant participant-tail" data-participant="service"><text fill="#000000" font-family="sans-serif" font-size="14" lengthAdjust="spacing" textLength="44.3447" x="1435.1587" y="1324.4004">service</text><text fill="#000000" font-family="sans-serif" font-size="14" lengthAdjust="spacing" textLength="42.793" x="1435.9346" y="1342.0098">(Logic)</text><ellipse cx="1460.3311" cy="1361.0859" fill="#E2E2F0" rx="12" ry="12" style="stroke:#181818;stroke-width:0.5;"/><polygon fill="#181818" points="1456.3311,1349.0859,1462.3311,1344.0859,1460.3311,1349.0859,1462.3311,1354.0859,1456.3311,1349.0859" style="stroke:#181818;stroke-width:1;"/></g><g class="participant participant-head" data-participant="repository"><text fill="#000000" font-family="sans-serif" font-size="14" lengthAdjust="spacing" textLength="61.4688" x="1619.2256" y="100.5332">repository</text><text fill="#000000" font-family="sans-serif" font-size="14" lengthAdjust="spacing" textLength="87.9102" x="1606.0049" y="118.1426">(Data Access)</text><ellipse cx="1652.96" cy="70" fill="#E2E2F0" rx="12" ry="12" style="stroke:#181818;stroke-width:0.5;"/><polygon fill="#181818" points="1648.96,58,1654.96,53,1652.96,58,1654.96,63,1648.96,58" style="stroke:#181818;stroke-width:1;"/></g><g class="participant participant-tail" data-participant="repository"><text fill="#000000" font-family="sans-serif" font-size="14" lengthAdjust="spacing" textLength="61.4688" x="1619.2256" y="1324.4004">repository</text><text fill="#000000" font-family="sans-serif" font-size="14" lengthAdjust="spacing" textLength="87.9102" x="1606.0049" y="1342.0098">(Data Access)</text><ellipse cx="1652.96" cy="1361.0859" fill="#E2E2F0" rx="12" ry="12" style="stroke:#181818;stroke-width:0.5;"/><polygon fill="#181818" points="1648.96,1349.0859,1654.96,1344.0859,1652.96,1349.0859,1654.96,1354.0859,1648.96,1349.0859" style="stroke:#181818;stroke-width:1;"/></g><g class="participant participant-head" data-participant="entity"><text fill="#000000" font-family="sans-serif" font-size="14" lengthAdjust="spacing" textLength="33.4619" x="1759.3853" y="100.5332">entity</text><text fill="#000000" font-family="sans-serif" font-size="14" lengthAdjust="spacing" textLength="54.4551" x="1748.8887" y="118.1426">(Models)</text><ellipse cx="1779.1162" cy="70" fill="#E2E2F0" rx="12" ry="12" style="stroke:#181818;stroke-width:0.5;"/><line style="stroke:#181818;stroke-width:0.5;" x1="1767.1162" x2="1791.1162" y1="84" y2="84"/></g><g class="participant participant-tail" data-participant="entity"><text fill="#000000" font-family="sans-serif" font-size="14" lengthAdjust="spacing" textLength="33.4619" x="1759.3853" y="1324.4004">entity</text><text fill="#000000" font-family="sans-serif" font-size="14" lengthAdjust="spacing" textLength="54.4551" x="1748.8887" y="1342.0098">(Models)</text><ellipse cx="1779.1162" cy="1361.0859" fill="#E2E2F0" rx="12" ry="12" style="stroke:#181818;stroke-width:0.5;"/><line style="stroke:#181818;stroke-width:0.5;" x1="1767.1162" x2="1791.1162" y1="1375.0859" y2="1375.0859"/></g><g class="participant participant-head" data-participant="db"><text fill="#000000" font-family="sans-serif" font-size="14" lengthAdjust="spacing" textLength="76.2617" x="1850.4707" y="118.1426">PostgreSQL</text><path d="M1873.6016,67.6094 C1873.6016,57.6094 1891.6016,57.6094 1891.6016,57.6094 C1891.6016,57.6094 1909.6016,57.6094 1909.6016,67.6094 L1909.6016,93.6094 C1909.6016,103.6094 1891.6016,103.6094 1891.6016,103.6094 C1891.6016,103.6094 1873.6016,103.6094 1873.6016,93.6094 L1873.6016,67.6094" fill="#E2E2F0" style="stroke:#181818;stroke-width:0.5;"/><path d="M1873.6016,67.6094 C1873.6016,77.6094 1891.6016,77.6094 1891.6016,77.6094 C1891.6016,77.6094 1909.6016,77.6094 1909.6016,67.6094" fill="none" style="stroke:#181818;stroke-width:0.5;"/></g><g class="participant participant-tail" data-participant="db"><text fill="#000000" font-family="sans-serif" font-size="14" lengthAdjust="spacing" textLength="76.2617" x="1850.4707" y="1324.4004">PostgreSQL</text><path d="M1873.6016,1337.4766 C1873.6016,1327.4766 1891.6016,1327.4766 1891.6016,1327.4766 C1891.6016,1327.4766 1909.6016,1327.4766 1909.6016,1337.4766 L1909.6016,1363.4766 C1909.6016,1373.4766 1891.6016,1373.4766 1891.6016,1373.4766 C1891.6016,1373.4766 1873.6016,1373.4766 1873.6016,1363.4766 L1873.6016,1337.4766" fill="#E2E2F0" style="stroke:#181818;stroke-width:0.5;"/><path d="M1873.6016,1337.4766 C1873.6016,1347.4766 1891.6016,1347.4766 1891.6016,1347.4766 C1891.6016,1347.4766 1909.6016,1347.4766 1909.6016,1337.4766" fill="none" style="stroke:#181818;stroke-width:0.5;"/></g><g><title>Browser</title><rect fill="#FFFFFF" height="1071.0469" style="stroke:#181818;stroke-width:1;" width="10" x="148.3237" y="221.8203"/></g><g><title>routes</title><rect fill="#FFFFFF" height="1049.6953" style="stroke:#181818;stroke-width:1;" width="10" x="253.5728" y="252.1719"/></g><g><title>pages</title><rect fill="#FFFFFF" height="30.3516" style="stroke:#181818;stroke-width:1;" width="10" x="427.5161" y="282.5234"/></g><g><title>hooks</title><rect fill="#FFFFFF" height="919.2891" style="stroke:#181818;stroke-width:1;" width="10" x="538.4331" y="343.2266"/></g><g><title>contexts</title><rect fill="#FFFFFF" height="858.5859" style="stroke:#181818;stroke-width:1;" width="10" x="674.0093" y="373.5781"/></g><g><title>api</title><rect fill="#FFFFFF" height="797.8828" style="stroke:#181818;stroke-width:1;" width="10" x="802.3555" y="403.9297"/></g><g><title>cmd.rest</title><rect fill="#FFFFFF" height="652.5781" style="stroke:#181818;stroke-width:1;" width="10" x="963.9717" y="518.8828"/></g><g><title>middleware</title><rect fill="#FFFFFF" height="117.0547" style="stroke:#181818;stroke-width:1;" width="10" x="1110.4424" y="549.2344"/></g><g><title>controller</title><rect fill="#FFFFFF" height="359.8672" style="stroke:#181818;stroke-width:1;" width="10" x="1269.8477" y="696.6406"/></g><g><title>service</title><rect fill="#FFFFFF" height="255.8125" style="stroke:#181818;stroke-width:1;" width="10" x="1455.3311" y="726.9922"/></g><g><title>repository</title><rect fill="#FFFFFF" height="151.7578" style="stroke:#181818;stroke-width:1;" width="10" x="1647.96" y="757.3438"/></g><g><title>entity</title><rect fill="#FFFFFF" height="91.0547" style="stroke:#181818;stroke-width:1;" width="10" x="1774.1162" y="787.6953"/></g><g><title>PostgreSQL</title><rect fill="#FFFFFF" height="30.3516" style="stroke:#181818;stroke-width:1;" width="10" x="1886.6016" y="818.0469"/></g><rect fill="#EEEEEE" height="3" style="stroke:#EEEEEE;stroke-width:1;" width="1937.7324" x="0" y="164.3438"/><line style="stroke:#000000;stroke-width:1;" x1="0" x2="1937.7324" y1="164.3438" y2="164.3438"/><line style="stroke:#000000;stroke-width:1;" x1="0" x2="1937.7324" y1="167.3438" y2="167.3438"/><rect fill="#EEEEEE" height="48.25" style="stroke:#000000;stroke-width:2;" width="327.0806" x="805.3259" y="141.2188"/><text fill="#000000" font-family="sans-serif" font-size="32" font-weight="bold" lengthAdjust="spacing" textLength="309.4688" x="811.3259" y="178.4375">User Request Phase</text><text fill="#000000" font-family="sans-serif" font-size="13" font-weight="bold" lengthAdjust="spacing" textLength="3.6118" x="1120.7947" y="182.6123">&#160;</text><g class="message" data-participant-1="user" data-participant-2="browser"><polygon fill="#181818" points="136.3237,217.8203,146.3237,221.8203,136.3237,225.8203,140.3237,221.8203" style="stroke:#181818;stroke-width:1;"/><line style="stroke:#181818;stroke-width:1;" x1="22.7793" x2="142.3237" y1="221.8203" y2="221.8203"/><text fill="#000000" font-family="sans-serif" font-size="13" font-weight="bold" lengthAdjust="spacing" textLength="7.23" x="34.7825" y="216.9639">1</text><text fill="#000000" font-family="sans-serif" font-size="13" lengthAdjust="spacing" textLength="90.3081" x="46.0125" y="216.9639">Click / Navigate</text></g><g class="message" data-participant-1="browser" data-participant-2="routes"><polygon fill="#181818" points="241.5728,248.1719,251.5728,252.1719,241.5728,256.1719,245.5728,252.1719" style="stroke:#181818;stroke-width:1;"/><line style="stroke:#181818;stroke-width:1;" x1="158.3237" x2="247.5728" y1="252.1719" y2="252.1719"/><text fill="#000000" font-family="sans-serif" font-size="13" font-weight="bold" lengthAdjust="spacing" textLength="7.23" x="167.8237" y="247.3154">2</text><text fill="#000000" font-family="sans-serif" font-size="13" lengthAdjust="spacing" textLength="65.019" x="179.0537" y="247.3154">Match URL</text></g><g class="message" data-participant-1="routes" data-participant-2="pages"><polygon fill="#181818" points="415.5161,278.5234,425.5161,282.5234,415.5161,286.5234,419.5161,282.5234" style="stroke:#181818;stroke-width:1;"/><line style="stroke:#181818;stroke-width:1;" x1="263.5728" x2="421.5161" y1="282.5234" y2="282.5234"/><text fill="#000000" font-family="sans-serif" font-size="13" font-weight="bold" lengthAdjust="spacing" textLength="7.23" x="273.0728" y="277.667">3</text><text fill="#000000" font-family="sans-serif" font-size="13" lengthAdjust="spacing" textLength="133.7134" x="284.3027" y="277.667">Load Page Component</text></g><g class="message" data-participant-1="pages" data-participant-2="browser"><polygon fill="#181818" points="169.3237,308.875,159.3237,312.875,169.3237,316.875,165.3237,312.875" style="stroke:#181818;stroke-width:1;"/><line style="stroke:#181818;stroke-width:1;" x1="163.3237" x2="431.5161" y1="312.875" y2="312.875"/><text fill="#000000" font-family="sans-serif" font-size="13" font-weight="bold" lengthAdjust="spacing" textLength="7.23" x="260.1804" y="308.0186">4</text><text fill="#000000" font-family="sans-serif" font-size="13" lengthAdjust="spacing" textLength="59.249" x="271.4104" y="308.0186">Render UI</text></g><g class="message" data-participant-1="browser" data-participant-2="hooks"><polygon fill="#181818" points="526.4331,339.2266,536.4331,343.2266,526.4331,347.2266,530.4331,343.2266" style="stroke:#181818;stroke-width:1;"/><line style="stroke:#181818;stroke-width:1;" x1="158.3237" x2="532.4331" y1="343.2266" y2="343.2266"/><text fill="#000000" font-family="sans-serif" font-size="13" font-weight="bold" lengthAdjust="spacing" textLength="7.23" x="314.5862" y="338.3701">5</text><text fill="#000000" font-family="sans-serif" font-size="13" lengthAdjust="spacing" textLength="56.3545" x="325.8162" y="338.3701">Call Hook</text></g><g class="message" data-participant-1="hooks" data-participant-2="contexts"><polygon fill="#181818" points="662.0093,369.5781,672.0093,373.5781,662.0093,377.5781,666.0093,373.5781" style="stroke:#181818;stroke-width:1;"/><line style="stroke:#181818;stroke-width:1;" x1="548.4331" x2="668.0093" y1="373.5781" y2="373.5781"/><text fill="#000000" font-family="sans-serif" font-size="13" font-weight="bold" lengthAdjust="spacing" textLength="7.23" x="566.584" y="368.7217">6</text><text fill="#000000" font-family="sans-serif" font-size="13" lengthAdjust="spacing" textLength="78.0444" x="577.814" y="368.7217">Get/Set State</text></g><g class="message" data-participant-1="contexts" data-participant-2="api"><polygon fill="#181818" points="790.3555,399.9297,800.3555,403.9297,790.3555,407.9297,794.3555,403.9297" style="stroke:#181818;stroke-width:1;"/><line style="stroke:#181818;stroke-width:1;" x1="684.0093" x2="796.3555" y1="403.9297" y2="403.9297"/><text fill="#000000" font-family="sans-serif" font-size="13" font-weight="bold" lengthAdjust="spacing" textLength="7.23" x="694.5811" y="399.0732">7</text><text fill="#000000" font-family="sans-serif" font-size="13" lengthAdjust="spacing" textLength="85.9727" x="705.811" y="399.0732">HTTP Request</text></g><rect fill="#EEEEEE" height="3" style="stroke:#EEEEEE;stroke-width:1;" width="1937.7324" x="0" y="445.0547"/><line style="stroke:#000000;stroke-width:1;" x1="0" x2="1937.7324" y1="445.0547" y2="445.0547"/><line style="stroke:#000000;stroke-width:1;" x1="0" x2="1937.7324" y1="448.0547" y2="448.0547"/><rect fill="#EEEEEE" height="48.25" style="stroke:#000000;stroke-width:2;" width="435.5806" x="751.0759" y="421.9297"/><text fill="#000000" font-family="sans-serif" font-size="32" font-weight="bold" lengthAdjust="spacing" textLength="417.9688" x="757.0759" y="459.1484">Backend Processing Phase</text><text fill="#000000" font-family="sans-serif" font-size="13" font-weight="bold" lengthAdjust="spacing" textLength="3.6118" x="1175.0447" y="463.3232">&#160;</text><g class="message" data-participant-1="api" data-participant-2="rest"><polygon fill="#181818" points="951.9717,514.8828,961.9717,518.8828,951.9717,522.8828,955.9717,518.8828" style="stroke:#181818;stroke-width:1;"/><line style="stroke:#181818;stroke-width:1;" x1="812.3555" x2="957.9717" y1="518.8828" y2="518.8828"/><text fill="#000000" font-family="sans-serif" font-size="13" font-weight="bold" lengthAdjust="spacing" textLength="14.46" x="821.8555" y="505.8506">10</text><text fill="#000000" font-family="sans-serif" font-size="13" lengthAdjust="spacing" textLength="114.1563" x="840.3154" y="497.6748">POST /api/resource</text><text fill="#000000" font-family="sans-serif" font-size="13" lengthAdjust="spacing" textLength="92.5044" x="851.1414" y="514.0264">{JSON payload}</text></g><g class="message" data-participant-1="rest" data-participant-2="middleware"><polygon fill="#181818" points="1098.4424,545.2344,1108.4424,549.2344,1098.4424,553.2344,1102.4424,549.2344" style="stroke:#181818;stroke-width:1;"/><line style="stroke:#181818;stroke-width:1;" x1="973.9717" x2="1104.4424" y1="549.2344" y2="549.2344"/><text fill="#000000" font-family="sans-serif" font-size="13" font-weight="bold" lengthAdjust="spacing" textLength="14.46" x="983.4717" y="544.3779">11</text><text fill="#000000" font-family="sans-serif" font-size="13" lengthAdjust="spacing" textLength="99.0107" x="1001.9316" y="544.3779">Validate Request</text></g><g class="message" data-participant-1="middleware" data-participant-2="middleware"><line style="stroke:#181818;stroke-width:1;" x1="1120.4424" x2="1162.4424" y1="579.5859" y2="579.5859"/><line style="stroke:#181818;stroke-width:1;" x1="1162.4424" x2="1162.4424" y1="579.5859" y2="592.5859"/><line style="stroke:#181818;stroke-width:1;" x1="1121.4424" x2="1162.4424" y1="592.5859" y2="592.5859"/><polygon fill="#181818" points="1131.4424,588.5859,1121.4424,592.5859,1131.4424,596.5859,1127.4424,592.5859" style="stroke:#181818;stroke-width:1;"/><text fill="#000000" font-family="sans-serif" font-size="13" font-weight="bold" lengthAdjust="spacing" textLength="14.46" x="1127.4424" y="574.7295">12</text><text fill="#000000" font-family="sans-serif" font-size="13" lengthAdjust="spacing" textLength="106.9453" x="1145.9023" y="574.7295">Check Auth Token</text></g><g class="message" data-participant-1="middleware" data-participant-2="middleware"><line style="stroke:#181818;stroke-width:1;" x1="1120.4424" x2="1162.4424" y1="622.9375" y2="622.9375"/><line style="stroke:#181818;stroke-width:1;" x1="1162.4424" x2="1162.4424" y1="622.9375" y2="635.9375"/><line style="stroke:#181818;stroke-width:1;" x1="1121.4424" x2="1162.4424" y1="635.9375" y2="635.9375"/><polygon fill="#181818" points="1131.4424,631.9375,1121.4424,635.9375,1131.4424,639.9375,1127.4424,635.9375" style="stroke:#181818;stroke-width:1;"/><text fill="#000000" font-family="sans-serif" font-size="13" font-weight="bold" lengthAdjust="spacing" textLength="14.46" x="1127.4424" y="618.0811">13</text><text fill="#000000" font-family="sans-serif" font-size="13" lengthAdjust="spacing" textLength="79.5044" x="1145.9023" y="618.0811">Validate Input</text></g><g class="message" data-participant-1="middleware" data-participant-2="rest"><polygon fill="#181818" points="984.9717,662.2891,974.9717,666.2891,984.9717,670.2891,980.9717,666.2891" style="stroke:#181818;stroke-width:1;"/><line style="stroke:#181818;stroke-width:1;" x1="978.9717" x2="1114.4424" y1="666.2891" y2="666.2891"/><text fill="#000000" font-family="sans-serif" font-size="13" font-weight="bold" lengthAdjust="spacing" textLength="14.46" x="1004.4021" y="661.4326">14</text><text fill="#000000" font-family="sans-serif" font-size="13" lengthAdjust="spacing" textLength="62.1499" x="1022.8621" y="661.4326">Authorized</text></g><g class="message" data-participant-1="rest" data-participant-2="controller"><polygon fill="#181818" points="1257.8477,692.6406,1267.8477,696.6406,1257.8477,700.6406,1261.8477,696.6406" style="stroke:#181818;stroke-width:1;"/><line style="stroke:#181818;stroke-width:1;" x1="973.9717" x2="1263.8477" y1="696.6406" y2="696.6406"/><text fill="#000000" font-family="sans-serif" font-size="13" font-weight="bold" lengthAdjust="spacing" textLength="14.46" x="1066.072" y="691.7842">15</text><text fill="#000000" font-family="sans-serif" font-size="13" lengthAdjust="spacing" textLength="93.2153" x="1084.532" y="691.7842">Handle(request)</text></g><g class="message" data-participant-1="controller" data-participant-2="service"><polygon fill="#181818" points="1443.3311,722.9922,1453.3311,726.9922,1443.3311,730.9922,1447.3311,726.9922" style="stroke:#181818;stroke-width:1;"/><line style="stroke:#181818;stroke-width:1;" x1="1279.8477" x2="1449.3311" y1="726.9922" y2="726.9922"/><text fill="#000000" font-family="sans-serif" font-size="13" font-weight="bold" lengthAdjust="spacing" textLength="14.46" x="1289.3477" y="722.1357">16</text><text fill="#000000" font-family="sans-serif" font-size="13" lengthAdjust="spacing" textLength="138.0234" x="1307.8076" y="722.1357">Execute Business Logic</text></g><g class="message" data-participant-1="service" data-participant-2="repository"><polygon fill="#181818" points="1635.96,753.3438,1645.96,757.3438,1635.96,761.3438,1639.96,757.3438" style="stroke:#181818;stroke-width:1;"/><line style="stroke:#181818;stroke-width:1;" x1="1465.3311" x2="1641.96" y1="757.3438" y2="757.3438"/><text fill="#000000" font-family="sans-serif" font-size="13" font-weight="bold" lengthAdjust="spacing" textLength="14.46" x="1514.1792" y="752.4873">17</text><text fill="#000000" font-family="sans-serif" font-size="13" lengthAdjust="spacing" textLength="66.4727" x="1532.6392" y="752.4873">Query Data</text></g><g class="message" data-participant-1="repository" data-participant-2="entity"><polygon fill="#181818" points="1762.1162,783.6953,1772.1162,787.6953,1762.1162,791.6953,1766.1162,787.6953" style="stroke:#181818;stroke-width:1;"/><line style="stroke:#181818;stroke-width:1;" x1="1657.96" x2="1768.1162" y1="787.6953" y2="787.6953"/><text fill="#000000" font-family="sans-serif" font-size="13" font-weight="bold" lengthAdjust="spacing" textLength="14.46" x="1668.8745" y="782.8389">18</text><text fill="#000000" font-family="sans-serif" font-size="13" lengthAdjust="spacing" textLength="75.8672" x="1687.3345" y="782.8389">Map to Entity</text></g><g class="message" data-participant-1="entity" data-participant-2="db"><polygon fill="#181818" points="1874.6016,814.0469,1884.6016,818.0469,1874.6016,822.0469,1878.6016,818.0469" style="stroke:#181818;stroke-width:1;"/><line style="stroke:#181818;stroke-width:1;" x1="1784.1162" x2="1880.6016" y1="818.0469" y2="818.0469"/><text fill="#000000" font-family="sans-serif" font-size="13" font-weight="bold" lengthAdjust="spacing" textLength="14.46" x="1793.6162" y="813.1904">19</text><text fill="#000000" font-family="sans-serif" font-size="13" lengthAdjust="spacing" textLength="65.0254" x="1812.0762" y="813.1904">SQL Query</text></g><g class="message" data-participant-1="db" data-participant-2="entity"><polygon fill="#181818" points="1795.1162,844.3984,1785.1162,848.3984,1795.1162,852.3984,1791.1162,848.3984" style="stroke:#181818;stroke-width:1;"/><line style="stroke:#181818;stroke-width:1;" x1="1789.1162" x2="1890.6016" y1="848.3984" y2="848.3984"/><text fill="#000000" font-family="sans-serif" font-size="13" font-weight="bold" lengthAdjust="spacing" textLength="14.46" x="1798.6426" y="843.542">20</text><text fill="#000000" font-family="sans-serif" font-size="13" lengthAdjust="spacing" textLength="59.9727" x="1817.1025" y="843.542">Result Set</text></g><g class="message" data-participant-1="entity" data-participant-2="repository"><polygon fill="#181818" points="1668.96,874.75,1658.96,878.75,1668.96,882.75,1664.96,878.75" style="stroke:#181818;stroke-width:1;"/><line style="stroke:#181818;stroke-width:1;" x1="1662.96" x2="1778.1162" y1="878.75" y2="878.75"/><text fill="#000000" font-family="sans-serif" font-size="13" font-weight="bold" lengthAdjust="spacing" textLength="14.46" x="1672.46" y="873.8936">21</text><text fill="#000000" font-family="sans-serif" font-size="13" lengthAdjust="spacing" textLength="73.6963" x="1690.9199" y="873.8936">Entity Object</text></g><g class="message" data-participant-1="repository" data-participant-2="service"><polygon fill="#181818" points="1476.3311,905.1016,1466.3311,909.1016,1476.3311,913.1016,1472.3311,909.1016" style="stroke:#181818;stroke-width:1;"/><line style="stroke:#181818;stroke-width:1;" x1="1470.3311" x2="1651.96" y1="909.1016" y2="909.1016"/><text fill="#000000" font-family="sans-serif" font-size="13" font-weight="bold" lengthAdjust="spacing" textLength="14.46" x="1508.0083" y="904.2451">22</text><text fill="#000000" font-family="sans-serif" font-size="13" lengthAdjust="spacing" textLength="83.8145" x="1526.4683" y="904.2451">Domain Model</text></g><g class="message" data-participant-1="service" data-participant-2="service"><line style="stroke:#181818;stroke-width:1;" x1="1465.3311" x2="1507.3311" y1="939.4531" y2="939.4531"/><line style="stroke:#181818;stroke-width:1;" x1="1507.3311" x2="1507.3311" y1="939.4531" y2="952.4531"/><line style="stroke:#181818;stroke-width:1;" x1="1466.3311" x2="1507.3311" y1="952.4531" y2="952.4531"/><polygon fill="#181818" points="1476.3311,948.4531,1466.3311,952.4531,1476.3311,956.4531,1472.3311,952.4531" style="stroke:#181818;stroke-width:1;"/><text fill="#000000" font-family="sans-serif" font-size="13" font-weight="bold" lengthAdjust="spacing" textLength="14.46" x="1472.3311" y="934.5967">23</text><text fill="#000000" font-family="sans-serif" font-size="13" lengthAdjust="spacing" textLength="140.1689" x="1490.791" y="934.5967">Process Business Rules</text></g><g class="message" data-participant-1="service" data-participant-2="controller"><polygon fill="#181818" points="1290.8477,978.8047,1280.8477,982.8047,1290.8477,986.8047,1286.8477,982.8047" style="stroke:#181818;stroke-width:1;"/><line style="stroke:#181818;stroke-width:1;" x1="1284.8477" x2="1459.3311" y1="982.8047" y2="982.8047"/><text fill="#000000" font-family="sans-serif" font-size="13" font-weight="bold" lengthAdjust="spacing" textLength="14.46" x="1326.9089" y="977.9482">24</text><text fill="#000000" font-family="sans-serif" font-size="13" lengthAdjust="spacing" textLength="67.9009" x="1345.3689" y="977.9482">Result DTO</text></g><g class="message" data-participant-1="controller" data-participant-2="controller"><line style="stroke:#181818;stroke-width:1;" x1="1279.8477" x2="1321.8477" y1="1013.1563" y2="1013.1563"/><line style="stroke:#181818;stroke-width:1;" x1="1321.8477" x2="1321.8477" y1="1013.1563" y2="1026.1563"/><line style="stroke:#181818;stroke-width:1;" x1="1280.8477" x2="1321.8477" y1="1026.1563" y2="1026.1563"/><polygon fill="#181818" points="1290.8477,1022.1563,1280.8477,1026.1563,1290.8477,1030.1563,1286.8477,1026.1563" style="stroke:#181818;stroke-width:1;"/><text fill="#000000" font-family="sans-serif" font-size="13" font-weight="bold" lengthAdjust="spacing" textLength="14.46" x="1286.8477" y="1008.2998">25</text><text fill="#000000" font-family="sans-serif" font-size="13" lengthAdjust="spacing" textLength="103.3208" x="1305.3076" y="1008.2998">Format Response</text></g><g class="message" data-participant-1="controller" data-participant-2="rest"><polygon fill="#181818" points="984.9717,1052.5078,974.9717,1056.5078,984.9717,1060.5078,980.9717,1056.5078" style="stroke:#181818;stroke-width:1;"/><line style="stroke:#181818;stroke-width:1;" x1="978.9717" x2="1273.8477" y1="1056.5078" y2="1056.5078"/><text fill="#000000" font-family="sans-serif" font-size="13" font-weight="bold" lengthAdjust="spacing" textLength="14.46" x="1067.1343" y="1051.6514">26</text><text fill="#000000" font-family="sans-serif" font-size="13" lengthAdjust="spacing" textLength="96.0908" x="1085.5942" y="1051.6514">HTTP Response</text></g><rect fill="#EEEEEE" height="3" style="stroke:#EEEEEE;stroke-width:1;" width="1937.7324" x="0" y="1097.6328"/><line style="stroke:#000000;stroke-width:1;" x1="0" x2="1937.7324" y1="1097.6328" y2="1097.6328"/><line style="stroke:#000000;stroke-width:1;" x1="0" x2="1937.7324" y1="1100.6328" y2="1100.6328"/><rect fill="#EEEEEE" height="48.25" style="stroke:#000000;stroke-width:2;" width="355.4868" x="791.1228" y="1074.5078"/><text fill="#000000" font-family="sans-serif" font-size="32" font-weight="bold" lengthAdjust="spacing" textLength="337.875" x="797.1228" y="1111.7266">Response Flow Phase</text><text fill="#000000" font-family="sans-serif" font-size="13" font-weight="bold" lengthAdjust="spacing" textLength="3.6118" x="1134.9978" y="1115.9014">&#160;</text><g class="message" data-participant-1="rest" data-participant-2="api"><polygon fill="#181818" points="823.3555,1167.4609,813.3555,1171.4609,823.3555,1175.4609,819.3555,1171.4609" style="stroke:#181818;stroke-width:1;"/><line style="stroke:#181818;stroke-width:1;" x1="817.3555" x2="967.9717" y1="1171.4609" y2="1171.4609"/><text fill="#000000" font-family="sans-serif" font-size="13" font-weight="bold" lengthAdjust="spacing" textLength="14.46" x="831.2109" y="1158.4287">20</text><text fill="#000000" font-family="sans-serif" font-size="13" lengthAdjust="spacing" textLength="44.0845" x="877.8513" y="1150.2529">200 OK</text><text fill="#000000" font-family="sans-serif" font-size="13" lengthAdjust="spacing" textLength="100.4453" x="849.6709" y="1166.6045">{JSON response}</text></g><g class="message" data-participant-1="api" data-participant-2="contexts"><polygon fill="#181818" points="695.0093,1197.8125,685.0093,1201.8125,695.0093,1205.8125,691.0093,1201.8125" style="stroke:#181818;stroke-width:1;"/><line style="stroke:#181818;stroke-width:1;" x1="689.0093" x2="806.3555" y1="1201.8125" y2="1201.8125"/><text fill="#000000" font-family="sans-serif" font-size="13" font-weight="bold" lengthAdjust="spacing" textLength="14.46" x="698.5093" y="1196.9561">21</text><text fill="#000000" font-family="sans-serif" font-size="13" lengthAdjust="spacing" textLength="75.8862" x="716.9692" y="1196.9561">Update State</text></g><g class="message" data-participant-1="contexts" data-participant-2="hooks"><polygon fill="#181818" points="559.4331,1228.1641,549.4331,1232.1641,559.4331,1236.1641,555.4331,1232.1641" style="stroke:#181818;stroke-width:1;"/><line style="stroke:#181818;stroke-width:1;" x1="553.4331" x2="678.0093" y1="1232.1641" y2="1232.1641"/><text fill="#000000" font-family="sans-serif" font-size="13" font-weight="bold" lengthAdjust="spacing" textLength="14.46" x="562.9331" y="1227.3076">22</text><text fill="#000000" font-family="sans-serif" font-size="13" lengthAdjust="spacing" textLength="83.1162" x="581.3931" y="1227.3076">State Updated</text></g><g class="message" data-participant-1="hooks" data-participant-2="browser"><polygon fill="#181818" points="169.3237,1258.5156,159.3237,1262.5156,169.3237,1266.5156,165.3237,1262.5156" style="stroke:#181818;stroke-width:1;"/><line style="stroke:#181818;stroke-width:1;" x1="163.3237" x2="542.4331" y1="1262.5156" y2="1262.5156"/><text fill="#000000" font-family="sans-serif" font-size="13" font-weight="bold" lengthAdjust="spacing" textLength="14.46" x="312.3857" y="1257.6592">23</text><text fill="#000000" font-family="sans-serif" font-size="13" lengthAdjust="spacing" textLength="58.5254" x="330.8457" y="1257.6592">Re-render</text></g><g class="message" data-participant-1="browser" data-participant-2="user"><polygon fill="#181818" points="33.7793,1288.8672,23.7793,1292.8672,33.7793,1296.8672,29.7793,1292.8672" style="stroke:#181818;stroke-width:1;"/><line style="stroke:#181818;stroke-width:1;" x1="27.7793" x2="152.3237" y1="1292.8672" y2="1292.8672"/><text fill="#000000" font-family="sans-serif" font-size="13" font-weight="bold" lengthAdjust="spacing" textLength="14.46" x="37.2793" y="1288.0107">24</text><text fill="#000000" font-family="sans-serif" font-size="13" lengthAdjust="spacing" textLength="83.0845" x="55.7393" y="1288.0107">Display Result</text></g><!--SRC=[VLPDSzis4BtpL-peqcGwhcnrUiaadf4iErOhMue-qail48b8Y2c21K4dIYR_FGzV12ZFH1THm7kBtSLxIscXIquh_d_B6tsnuaqjguRJNIc_q0LLKlDFOiSpV9edKTLCiICr1btb_84t3TlpSIds5UMyqbmbAELZUTI48-HOASJLgaN4t-YT-T1ukrayRXycjolwE9xFfdJrn-XozDVlRZjZhPPLUznnHLTq5MdByMepkvajnu-RTO3cMYeQR1kk1iGQQl6GxMHR5KoTQ331sLZvhtgrue3IkAvVMzpERMIvhBII9GsKR3Ll3D0yA8ToYqcy6bKPq8qyeb2KtpYWNO_13b8-MLZRQ7caU_FJ0UrE19e7_bKRx5eppHqeh2O7ire0Sx_PBEcc53ZO8R6S9T6EnH1Ne86ynTB95u6LY3cAeYZv5wOuKEDM7nmeBlUJmqDf-tVFAW1KJD3jH3Iw-Ino4tKkzo9tGB-Oj9dNiX6uinE0KwOPZVCSQWcfXjqC9GgDmjqtm0-ouAN7kSMi07_78Dt1KZPwh_Zwmzpk5xiechlvubyl5lnw-mcPK2E-yNT_ZgwDR88HQ7b0gBT30xW68JDIeelh81LwOpgVFz6G7jcpsEEsZFh4CnuwEMK139uJ3sWFJES7sgxc4U-5vI40Mm41EvUie2L-K2Uno78gonosbzcALmKUjhEiuEVm92MhFbC8AqkhoXZR2JDp24231e5-p_LmpJLPXKP6fz8E2Xe42ORLgUzh95YnlhY32SkVa3qjbJH24DN-nKsay-3I30HpYkcmkROtj5oiDpJ4cX6_R9KHuVU_ruj7TE1Keg4_aiQRZ39BH82eUeJvo4fH6CoBn1Dp98np_is1Gnt6KhIHAEbNsEwiMLMt-WpfopAHf4ANYlHIarowCg8TJU-jKLyfLyJh_drvqsO90tplKf1ll_8SagH9Yul0RP3rSemH_9m5Yaqtc1O1FhGStyROQSyxLsS965HlScEHchIaM-VhZkbzxc4W53k0uN9tJWJ2yDXA8-ArrfRGBDTfzu2BmNg9kwDfiVlCynx5vt2MUMpPL1wPgCYEfvINLfrqAnAzu6ElLsq9loROthtwWgQRHNfATo7z6-qnxwGwCatXHNy6zMhpblMGv8HKDY_Cs__py0lVZgnlWs3Tb1XTNjBYd-3LyD_XHx-9ngxUxib8sjRMFMuY9VZkVHZcKPXu5kbfnNbvTeh5qPUErGjb9slAy9Co6QkjGqz5KvViv6ygfOJNmqy0]--></g></svg>